<svg width="1920" height="5092" viewBox="0 0 1920 5092" fill="none" xmlns="http://www.w3.org/2000/svg">
<g opacity="0.2" filter="url(#filter0_f_26_8)">
<circle cx="297" cy="797.113" r="297" fill="#DE101D"/>
</g>
<g opacity="0.1" filter="url(#filter1_f_26_8)">
<circle cx="1349" cy="1437" r="402" fill="#DE101D"/>
</g>
<path d="M825.5 456.113C1534 230.613 1212.5 1258.61 1647 1122.61" stroke="#F8E3E4" stroke-width="6" stroke-linecap="round" stroke-dasharray="13 15"/>
<path d="M298.799 4813.06C290.062 4044.48 1586.94 4566.61 1586.94 3949.11" stroke="#F8E3E4" stroke-width="6" stroke-linecap="round" stroke-dasharray="13 15"/>
<path d="M255.197 3068.28C318.165 2306.32 1518.35 2833.95 1560.01 2367.11" stroke="#F8E3E4" stroke-width="6" stroke-linecap="round" stroke-dasharray="13 15"/>
<path d="M1580.04 3852.28C1517.08 3090.32 316.887 3617.95 275.229 3151.11" stroke="#F8E3E4" stroke-width="6" stroke-linecap="round" stroke-dasharray="13 15"/>
<path d="M1671 1111.11C1728.83 1060.95 1722.7 988.112 1613.5 988.112C1006 988.112 355.5 1154.61 320 1495.61C277.231 1906.44 1551.5 1911.61 1561 2341.61" stroke="#F8E3E4" stroke-width="6" stroke-linecap="round" stroke-dasharray="13 15"/>
<circle cx="1661" cy="1114.11" r="15" fill="#F8E3E4"/>
<circle cx="1560" cy="2349.11" r="15" fill="#F8E3E4"/>
<circle cx="1582" cy="3886.11" r="54" fill="#F8E3E4"/>
<circle cx="298" cy="4820.11" r="20" fill="#F8E3E4"/>
<circle cx="368.5" cy="3067.61" r="113.5" stroke="#F8E3E4" stroke-width="6" stroke-linecap="round" stroke-dasharray="13 15"/>
<path fill-rule="evenodd" clip-rule="evenodd" d="M1630.71 802.794C1629.68 803.744 1629.69 805.376 1630.73 806.279C1631.81 807.223 1633.41 807.176 1634.34 806.173C1635.32 805.111 1635.26 803.935 1634.18 802.924C1633.06 801.89 1631.73 801.841 1630.71 802.794ZM1598.11 810.614C1597.61 810.803 1596.85 812.193 1596.85 812.93C1596.85 813.845 1598.42 815.14 1599.53 815.14C1600.65 815.14 1602.22 813.844 1602.22 812.926C1602.22 812.206 1601.7 811.242 1601.05 810.784C1600.58 810.447 1598.83 810.346 1598.11 810.614ZM1663.53 811.109C1661.92 812.603 1663.06 815.14 1665.34 815.14C1667.59 815.14 1668.81 812.446 1667.18 811.031C1666.21 810.181 1664.49 810.217 1663.53 811.109ZM1627.44 811.996C1619.07 812.92 1612.88 814.583 1606.28 817.675C1580.57 829.721 1568.32 857.677 1577.64 883.027C1580.96 892.059 1586.63 899.9 1594.42 906.23C1596.98 908.312 1602.7 912.065 1602.95 911.83C1603.03 911.758 1603.56 910.76 1604.12 909.611L1605.14 907.523L1602.82 906.079C1596 901.848 1589.82 895.425 1585.98 888.565C1582.09 881.631 1580.26 875.27 1579.93 867.521C1579.49 857.328 1582.38 847.623 1588.42 838.975C1595.48 828.861 1606.9 821.261 1619.38 818.374C1624.6 817.166 1626.59 816.95 1632.51 816.95C1638.59 816.95 1640.62 817.181 1645.94 818.472C1675.1 825.55 1691.91 854.244 1682.49 880.874C1678.8 891.314 1671.13 900.656 1661.44 906.512C1660.22 907.246 1659.23 907.986 1659.22 908.156C1659.22 908.327 1659.66 909.359 1660.19 910.45L1661.16 912.433L1663.37 911.169C1668.47 908.249 1674.25 903.398 1678.06 898.839C1686.93 888.232 1691.36 874.85 1690.26 861.992C1689.13 848.778 1683.69 837.46 1674.01 828.203C1662.91 817.579 1647.74 811.678 1632 811.856C1629.98 811.879 1627.93 811.942 1627.44 811.996ZM1624.75 822.33C1623.11 822.601 1620.71 823.101 1619.41 823.441C1617.27 824.005 1611.59 826.022 1611.24 826.345C1611.13 826.448 1625.9 850.487 1629.13 855.465C1629.66 856.273 1629.67 855.81 1629.67 839.044L1629.68 821.792L1628.71 821.814C1628.17 821.827 1626.39 822.059 1624.75 822.33ZM1635.06 839.012C1635.07 854.502 1635.11 856.239 1635.52 855.742C1635.77 855.437 1638.57 851.01 1641.74 845.903C1644.92 840.797 1648.93 834.341 1650.66 831.558L1653.81 826.496L1652.4 825.83C1648.76 824.119 1641.94 822.377 1637.06 821.917L1635.05 821.727L1635.06 839.012ZM1604.16 830.424C1600 833.246 1592.39 841.068 1593.15 841.737C1593.68 842.197 1624.65 858.699 1624.78 858.584C1624.93 858.443 1606.65 828.995 1606.41 829.002C1606.32 829.004 1605.31 829.644 1604.16 830.424ZM1657.18 830.868C1651.24 840.315 1639.84 858.759 1639.9 858.814C1639.97 858.883 1671.64 841.943 1671.92 841.683C1672.22 841.408 1668.33 836.86 1665.81 834.535C1663.6 832.499 1658.99 828.997 1658.51 828.997C1658.42 828.997 1657.82 829.839 1657.18 830.868ZM1574.28 832.992C1573.03 833.508 1572.53 834.794 1573.11 836.066C1573.87 837.774 1575.75 838.103 1577.18 836.779C1578.25 835.781 1578.33 834.582 1577.38 833.596C1576.53 832.711 1575.47 832.505 1574.28 832.992ZM1688.76 832.79C1687.75 833.148 1686.97 834.098 1686.97 834.982C1686.97 836.261 1687.23 836.722 1688.19 837.184C1689.39 837.762 1690.08 837.689 1691.13 836.871C1691.82 836.333 1692.05 835.922 1692.05 835.224C1692.05 833.665 1690.19 832.288 1688.76 832.79ZM1589.01 848.19C1587.01 852.575 1585.73 857.108 1585.33 861.216L1585.13 863.364H1603.74C1619.54 863.364 1622.28 863.306 1621.91 862.982C1621.51 862.633 1590.41 845.903 1590.17 845.903C1590.1 845.903 1589.59 846.932 1589.01 848.19ZM1658.71 854.435C1649.97 859.117 1642.82 863.042 1642.82 863.156C1642.81 863.27 1651.14 863.364 1661.32 863.364H1679.84L1679.65 861.632C1679.36 859.039 1678.4 854.767 1677.54 852.235C1676.84 850.187 1674.9 845.891 1674.68 845.912C1674.63 845.917 1667.44 849.752 1658.71 854.435ZM1630.04 861.457C1627.51 862.622 1626.61 865.467 1627.91 868.203C1628.29 868.992 1628.46 869.774 1628.35 870.176C1628.25 870.543 1621.24 885.529 1612.76 903.479C1603.29 923.531 1597.35 936.457 1597.34 937.002C1597.33 937.492 1597.57 938.143 1597.88 938.457L1598.43 939.025H1587.63C1575.87 939.025 1575.36 939.086 1574.75 940.581C1574.28 941.731 1574.42 942.351 1575.34 943.206L1576.22 944.018L1632.67 943.947L1689.12 943.875L1689.69 943.221C1690.53 942.249 1690.44 940.667 1689.49 939.835L1688.72 939.164L1677.09 939.085L1665.46 939.006L1666.07 938.285C1666.41 937.889 1666.68 937.294 1666.68 936.964C1666.68 936.634 1663.21 929.012 1658.97 920.026C1654.73 911.041 1647.81 896.39 1643.6 887.469C1639.32 878.4 1635.94 870.893 1635.94 870.44C1635.94 869.994 1636.28 869.172 1636.7 868.613C1638.14 866.686 1638.04 864.301 1636.45 862.624C1634.74 860.815 1632.38 860.384 1630.04 861.457ZM1564.75 864.044C1563.15 865.538 1564.28 868.075 1566.56 868.075C1568.01 868.075 1569.1 867.071 1569.1 865.719C1569.1 864.368 1568.01 863.364 1566.56 863.364C1565.82 863.364 1565.26 863.574 1564.75 864.044ZM1696.4 864.216C1695.98 864.685 1695.63 865.362 1695.63 865.719C1695.63 866.077 1695.98 866.754 1696.4 867.222C1697.02 867.901 1697.41 868.075 1698.31 868.075C1699.22 868.075 1699.61 867.901 1700.23 867.222C1700.65 866.754 1701 866.077 1701 865.719C1701 865.362 1700.65 864.685 1700.23 864.216C1699.61 863.538 1699.22 863.364 1698.31 863.364C1697.41 863.364 1697.02 863.538 1696.4 864.216ZM1585.21 868.887C1585.21 870.341 1585.84 873.941 1586.54 876.522C1587.17 878.819 1589.32 884.307 1589.95 885.214C1590.14 885.498 1592.64 884.273 1600.61 879.991C1606.34 876.914 1613.37 873.143 1616.25 871.61C1619.12 870.078 1621.67 868.656 1621.91 868.45C1622.27 868.135 1619.39 868.075 1603.78 868.075H1585.21V868.887ZM1642.82 868.283C1642.82 868.397 1649.3 871.956 1657.21 876.192C1665.13 880.427 1672.31 884.274 1673.18 884.739L1674.75 885.586L1675.76 883.518C1677.61 879.762 1679.15 874.326 1679.65 869.807L1679.84 868.075H1661.32C1651.14 868.075 1642.81 868.169 1642.82 868.283ZM1643.47 874.891C1643.76 875.795 1656.57 902.843 1656.84 903.102C1657.41 903.657 1664.48 898.485 1667.52 895.282C1669.97 892.699 1672.12 889.917 1671.84 889.685C1671.71 889.577 1665.36 886.151 1657.73 882.071C1650.1 877.992 1643.73 874.588 1643.58 874.508C1643.43 874.428 1643.38 874.601 1643.47 874.891ZM1607.19 882.068C1600 885.938 1593.83 889.279 1593.48 889.492C1592.86 889.877 1592.86 889.901 1594.27 891.729C1596.48 894.605 1600.55 898.404 1603.99 900.805C1607.07 902.953 1607.14 902.982 1607.48 902.371C1608.19 901.107 1620.48 874.995 1620.35 875.019C1620.31 875.027 1614.39 878.199 1607.19 882.068ZM1634.21 878.689C1634.55 879.04 1638.08 886.616 1642.06 895.526C1649.04 911.17 1660.74 936.275 1661.91 938.124L1662.48 939.025H1631.86C1602.55 939.025 1601.25 939.004 1601.71 938.533C1601.98 938.263 1608.44 924.825 1616.07 908.671C1626.04 887.568 1630.17 879.124 1630.72 878.676C1631.77 877.833 1633.4 877.839 1634.21 878.689ZM1625.74 900.386C1623.66 904.794 1622.05 908.487 1622.16 908.592C1622.42 908.835 1629.35 909.769 1629.54 909.588C1629.62 909.515 1629.65 905.611 1629.61 900.913L1629.53 892.371L1625.74 900.386ZM1635.05 901.287V909.647L1635.72 909.645C1636.62 909.643 1641.92 908.898 1642.08 908.752C1642.19 908.646 1635.45 893.305 1635.17 893.042C1635.1 892.978 1635.05 896.688 1635.05 901.287ZM1574.09 894.149C1573.81 894.305 1573.36 894.807 1573.11 895.266C1571.7 897.788 1575.55 900.046 1577.45 897.81C1578.32 896.782 1578.22 895.628 1577.18 894.66C1576.26 893.814 1575.08 893.617 1574.09 894.149ZM1688.32 894.17C1687.35 894.659 1686.97 895.275 1686.97 896.349C1686.97 898.493 1689.85 899.519 1691.34 897.908C1693.24 895.861 1690.83 892.891 1688.32 894.17ZM1618.67 915.341C1618.13 916.519 1617.81 917.578 1617.94 917.696C1618.23 917.945 1621.99 918.662 1625.2 919.079C1628.58 919.518 1636.87 919.435 1640.61 918.923C1643.7 918.501 1646.39 917.987 1646.39 917.817C1646.39 917.386 1644.3 913.402 1644.09 913.44C1639.51 914.302 1637.69 914.464 1632.51 914.472C1627.13 914.481 1625.76 914.355 1620.55 913.373C1619.65 913.203 1619.62 913.23 1618.67 915.341ZM1597.72 917.109C1596.61 918.144 1596.61 919.087 1597.72 920.244C1598.2 920.741 1598.64 921.086 1598.71 921.01C1599.15 920.492 1600.71 916.77 1600.57 916.56C1600.19 915.991 1598.59 916.299 1597.72 917.109ZM1663.87 916.662C1663.37 917.006 1663.38 917.124 1664.21 918.948C1665.22 921.164 1665.9 921.488 1667.12 920.349C1668.72 918.865 1667.63 916.299 1665.41 916.299C1664.86 916.299 1664.17 916.462 1663.87 916.662ZM1631.76 924.526C1630.69 924.907 1629.97 925.829 1629.97 926.848C1629.97 928.178 1630.74 929.022 1632.12 929.229C1633.08 929.371 1633.35 929.279 1634.14 928.549C1635.25 927.516 1635.34 926.331 1634.38 925.332C1633.68 924.607 1632.54 924.254 1631.76 924.526Z" fill="#F8E3E4"/>
<path fill-rule="evenodd" clip-rule="evenodd" d="M222.603 1205.11C222.603 1215.56 222.367 1228.19 222.079 1233.18C219.573 1276.51 209.648 1317.28 191.677 1358.06C191.464 1358.54 194.734 1358.68 207.005 1358.68H222.604V1343.97V1329.26H230.507H238.41V1343.97V1358.68H254.008C266.28 1358.68 269.549 1358.54 269.337 1358.06C256.187 1328.22 247.367 1298.49 242.685 1268.23C239.368 1246.79 238.417 1232.73 238.412 1205.11L238.41 1186.11H230.507H222.604L222.603 1205.11ZM179.529 1382.34C170.366 1399.13 159.073 1416.05 147.463 1430.37L142 1437.11H167.697H193.394L194.05 1432.63C195.716 1421.25 203.188 1411.59 214.259 1406.51C228.508 1399.96 244.548 1402.27 255.991 1412.53C262.055 1417.96 265.828 1424.87 266.964 1432.63L267.62 1437.11H293.31H319L313.308 1430.07C301.605 1415.58 290.685 1399.2 281.484 1382.34L276.607 1373.4H230.507H184.407L179.529 1382.34Z" fill="#F8E3E4"/>
<path fill-rule="evenodd" clip-rule="evenodd" d="M1529.48 1826.1C1526.63 1827.32 1523.42 1833.78 1524 1837.14C1524.96 1842.78 1532.58 1844.2 1534.95 1839.18C1536.24 1836.44 1535.9 1834.29 1533.72 1831.28C1532.63 1829.78 1531.74 1828.3 1531.74 1827.98C1531.73 1826.68 1530.5 1825.66 1529.48 1826.1ZM1520.11 1846.35C1519.07 1847.98 1519.14 1849.27 1520.33 1850.58C1521.23 1851.57 1521.98 1851.67 1528.9 1851.67C1537.37 1851.67 1538.68 1851.24 1538.68 1848.46C1538.68 1845.48 1537.69 1845.14 1528.87 1845.14C1521.18 1845.14 1520.85 1845.19 1520.11 1846.35ZM1560.82 1852.66C1560.14 1853.48 1560 1854.93 1559.99 1860.96L1559.99 1868.25L1557.4 1869.15C1555 1869.99 1554.78 1869.99 1554.24 1869.15C1551.95 1865.6 1548.33 1861.11 1547.46 1860.75C1546.17 1860.22 1543.96 1861.85 1543.73 1863.5C1543.64 1864.2 1544.78 1866.33 1546.84 1869.29L1550.09 1873.97L1548.48 1876.61C1547.59 1878.07 1546.64 1879.67 1546.36 1880.18C1545.9 1881.04 1545.56 1881 1541.72 1879.67C1539.35 1878.84 1537.07 1878.37 1536.4 1878.55C1534.68 1879.02 1533.99 1880.76 1534.74 1882.73C1535.26 1884.13 1535.89 1884.51 1539.8 1885.81C1542.25 1886.62 1544.32 1887.53 1544.4 1887.83C1544.48 1888.13 1544.67 1889.03 1544.83 1889.83C1544.99 1890.63 1545.7 1892.03 1546.4 1892.95L1547.69 1894.62L1546.84 1897.48C1546.37 1899.05 1545.33 1902.23 1544.53 1904.55C1543.23 1908.3 1542.97 1908.7 1542.15 1908.22C1540.82 1907.44 1539.39 1907.55 1538.68 1908.5C1538.34 1908.94 1537.87 1909.31 1537.64 1909.31C1536.69 1909.31 1532.62 1898.83 1531.23 1892.79C1529.71 1886.19 1528.36 1873.08 1528.93 1870.56C1529.11 1869.77 1530.15 1868 1531.24 1866.62C1532.96 1864.44 1533.22 1863.76 1533.22 1861.5C1533.22 1855.5 1527.22 1853.4 1523.07 1857.94C1520.83 1860.4 1519.47 1865.26 1518.84 1873.08C1517.18 1893.65 1519.72 1910.58 1526.33 1923C1528 1926.14 1528.26 1927.08 1528.26 1929.94C1528.26 1933.18 1528.32 1933.31 1530.93 1936.43C1533.75 1939.8 1534.97 1942.72 1534.56 1945.11C1534.42 1945.91 1533.63 1948.64 1532.81 1951.18C1531.01 1956.74 1530.28 1962.06 1531.31 1962.06C1531.69 1962.06 1532.24 1961.63 1532.54 1961.11C1534.94 1956.91 1550.53 1938.18 1551.95 1937.78C1553.6 1937.32 1555.54 1938.92 1555.52 1940.73C1555.52 1941.83 1554.34 1943.62 1550.99 1947.65C1544.59 1955.33 1538.55 1963.3 1535.74 1967.76C1532.54 1972.84 1528.66 1981.44 1527.14 1986.8C1525.37 1993.07 1523.92 2003.39 1524.81 2003.39C1525.03 2003.39 1525.59 2002.23 1526.06 2000.81C1527.42 1996.74 1533.98 1982.07 1535.21 1980.38C1536.66 1978.38 1539.04 1978.5 1540.13 1980.63C1540.82 1982 1540.73 1982.38 1538.32 1987.97C1529.63 2008.13 1524.1 2029.73 1523.04 2047.71C1522.65 2054.39 1523.5 2064.2 1524.57 2065.37C1525.52 2066.41 1525.53 2066.41 1539.67 2056.32C1561.54 2040.71 1574.42 2032.75 1577.81 2032.75C1579.94 2032.75 1581.51 2034.34 1585.9 2040.95C1589.1 2045.77 1591.05 2047.05 1593.17 2045.74L1594.46 2044.93L1594.39 2037.62C1594.33 2031.95 1593.92 2027.86 1592.57 2019.43C1586.11 1979.08 1586.08 1978.79 1586.54 1952.54C1587.03 1924.3 1586.42 1919.17 1580.54 1902.44L1577.79 1894.59L1579.04 1892.96C1579.73 1892.07 1580.44 1890.5 1580.61 1889.47C1580.92 1887.65 1581.04 1887.57 1585.83 1885.94C1589.61 1884.65 1590.93 1883.94 1591.58 1882.86C1592.33 1881.6 1592.34 1881.3 1591.69 1880.02C1590.69 1878.06 1589.1 1877.98 1584.3 1879.64C1582.09 1880.41 1580.09 1881.03 1579.85 1881.03C1579.61 1881.03 1578.92 1880.12 1578.31 1878.99C1577.7 1877.87 1576.78 1876.45 1576.28 1875.83C1575.39 1874.73 1575.43 1874.63 1578.87 1869.65C1581.08 1866.46 1582.31 1864.18 1582.22 1863.49C1581.99 1861.85 1579.78 1860.22 1578.49 1860.75C1577.61 1861.12 1573.99 1865.61 1571.65 1869.25C1571.03 1870.21 1570.93 1870.21 1568.48 1869.26L1565.95 1868.27V1860.87C1565.95 1854.39 1565.84 1853.36 1565.04 1852.57C1563.85 1851.38 1561.84 1851.43 1560.82 1852.66ZM1564.75 1882.72C1565.52 1883.95 1568.06 1886.91 1570.38 1889.29C1574.3 1893.31 1574.61 1893.78 1574.56 1895.69C1574.5 1898.41 1572.46 1903.19 1570.19 1905.95C1568.12 1908.46 1564.84 1910.4 1562.69 1910.39C1557.72 1910.35 1551.81 1903.38 1550.78 1896.35L1550.44 1894.04L1554.5 1889.89C1556.73 1887.6 1559.35 1884.55 1560.31 1883.11C1561.28 1881.67 1562.35 1880.49 1562.7 1880.49C1563.05 1880.49 1563.97 1881.49 1564.75 1882.72ZM1558.59 1912.3C1561.16 1913.91 1563.48 1914 1566.29 1912.61C1568.08 1911.71 1568.39 1911.69 1568.64 1912.39C1569.14 1913.83 1568.96 1914.11 1567.07 1914.78C1566.04 1915.14 1564.35 1915.92 1563.29 1916.5C1561.67 1917.39 1561.16 1917.45 1559.94 1916.9C1558.17 1916.09 1556.03 1913.41 1556.03 1911.99C1556.03 1910.68 1556 1910.67 1558.59 1912.3ZM1578.59 1928.88C1579.38 1929.84 1579.45 1930.69 1579.2 1936.36C1578.86 1944 1577.9 1949.26 1573.59 1967.13C1571.8 1974.56 1569.79 1983.49 1569.12 1986.98C1568.34 1991.02 1567.6 1993.58 1567.08 1994.01C1565.17 1995.59 1562.48 1994.06 1562.48 1991.4C1562.48 1988.8 1564.38 1979.59 1567.68 1966.14C1571.93 1948.82 1572.93 1943.42 1573.24 1935.96C1573.54 1929.1 1574.03 1927.8 1576.36 1927.8C1577.1 1927.8 1578.1 1928.29 1578.59 1928.88ZM1592.24 1965.46C1592.25 1976.23 1594.41 1998.03 1595.75 2000.76C1596.27 2001.83 1599.07 2002.58 1600.57 2002.06C1601.11 2001.87 1601.78 2001.06 1602.07 2000.24C1602.58 1998.82 1605.12 1987.42 1605.12 1986.57C1605.12 1986.35 1604.56 1985.88 1603.86 1985.53C1602.03 1984.62 1600.98 1981.49 1601.38 1978.17C1601.98 1973.2 1603.66 1971.31 1606.87 1971.98C1607.94 1972.21 1608.16 1971.98 1608.6 1970.19C1609.52 1966.47 1608.87 1965.82 1600.61 1962.11C1596.55 1960.29 1593.01 1958.8 1592.73 1958.8C1592.42 1958.8 1592.23 1961.32 1592.24 1965.46ZM1569.92 2043.43C1567.6 2044.81 1565.62 2046.02 1565.52 2046.11C1565.39 2046.24 1562.1 2089.27 1562 2092.16C1561.99 2092.39 1560.64 2092.57 1559.01 2092.57C1557.37 2092.57 1556.04 2092.39 1556.05 2092.16C1556.05 2091.94 1556.7 2082.95 1557.49 2072.18C1558.27 2061.41 1558.81 2052.42 1558.68 2052.2C1558.19 2051.32 1556.99 2051.94 1551.29 2056.03L1545.37 2060.28L1542.44 2075.75C1540.82 2084.25 1539.4 2091.52 1539.28 2091.89C1539.07 2092.57 1534.18 2092.9 1533.61 2092.28C1533.47 2092.11 1534.32 2086.83 1535.52 2080.53C1537.98 2067.52 1538.04 2066.87 1536.82 2067.11C1536.34 2067.21 1532.89 2069.49 1529.16 2072.18C1522.95 2076.65 1522.31 2077.28 1521.62 2079.42C1521.21 2080.7 1520.05 2084.19 1519.06 2087.17L1517.24 2092.57H1512.38C1508.54 2092.57 1507.34 2092.76 1506.7 2093.46C1505.5 2094.78 1505.91 2097.55 1507.44 2098.4C1508.41 2098.93 1519.75 2099.08 1560 2099.08C1600.25 2099.08 1611.59 2098.93 1612.56 2098.4C1614.09 2097.55 1614.5 2094.78 1613.3 2093.46C1612.66 2092.75 1611.43 2092.57 1607.32 2092.57C1604.48 2092.57 1602.15 2092.41 1602.15 2092.21C1602.15 2091.48 1594.61 2053.13 1594.39 2052.74C1594.26 2052.52 1593.05 2052.33 1591.69 2052.33C1588.81 2052.33 1586.68 2051.46 1584.39 2049.35C1583.28 2048.32 1582.59 2048.01 1582.25 2048.38C1581.9 2048.76 1582.07 2055.12 1582.78 2068.17C1583.34 2078.75 1583.81 2088.58 1583.81 2090.02L1583.8 2092.63L1580.95 2092.46L1578.1 2092.3L1576.8 2067.46C1576.09 2053.8 1575.37 2042.24 1575.21 2041.77C1575.04 2041.3 1574.73 2040.91 1574.52 2040.92C1574.31 2040.92 1572.24 2042.05 1569.92 2043.43Z" fill="#F8E3E4"/>
<path fill-rule="evenodd" clip-rule="evenodd" d="M364.161 3009.15C364.428 3010.71 365.08 3011.61 366.371 3012.19C367.39 3012.65 367.459 3012.73 366.965 3012.88C365.919 3013.19 365.074 3014.42 365.074 3015.64C365.074 3016.57 365.214 3016.88 365.964 3017.58C366.453 3018.04 367.042 3018.41 367.273 3018.41C367.632 3018.41 367.691 3018.81 367.691 3021.18V3023.94L365.86 3025.65C363.657 3027.7 363.577 3027.97 364.022 3031.95C364.201 3033.56 364.282 3034.93 364.201 3035.01C364.121 3035.08 363.637 3034.9 363.125 3034.61L362.195 3034.07L362.19 3031.21C362.185 3028.91 362.084 3028.14 361.677 3027.3C361.107 3026.12 360.856 3025.98 359.21 3025.93C358.094 3025.89 358.052 3025.92 358.181 3026.52C358.266 3026.92 358.164 3027.26 357.899 3027.47C357.656 3027.66 357.484 3028.17 357.484 3028.71C357.484 3029.26 357.272 3029.88 356.949 3030.27C356.448 3030.86 356.44 3030.95 356.823 3031.64C357.048 3032.05 357.524 3032.45 357.882 3032.54C358.239 3032.62 358.531 3032.74 358.531 3032.8C358.531 3032.85 358.221 3033.47 357.842 3034.17C356.879 3035.95 356.757 3037.88 357.44 3040.49C357.738 3041.64 358.062 3043.12 358.16 3043.8C358.257 3044.47 358.499 3045.32 358.696 3045.69C358.893 3046.05 359.055 3046.41 359.055 3046.48C359.055 3046.56 358.142 3046.62 357.026 3046.62L354.998 3046.62L355.007 3044.84C355.012 3043.86 355.232 3042.2 355.496 3041.14C356.074 3038.83 355.967 3036.83 355.213 3035.88C354.878 3035.45 354.092 3035.02 353.041 3034.68C352.135 3034.38 351.302 3034.05 351.189 3033.94C351.077 3033.83 350.56 3032.59 350.04 3031.18C348.927 3028.17 348.284 3027.12 347.262 3026.62C346.591 3026.3 346.392 3026.3 345.39 3026.67C343.999 3027.17 344.039 3027.14 344.307 3027.53C344.429 3027.71 344.543 3028.89 344.559 3030.16C344.583 3032.02 344.672 3032.5 345.019 3032.68C345.255 3032.81 345.764 3033.16 346.149 3033.47L346.85 3034.04L346.261 3034.98C345.737 3035.81 345.691 3036.11 345.848 3037.68C346.007 3039.28 345.971 3039.5 345.476 3039.97C344.971 3040.44 344.94 3040.66 345.086 3042.75C345.238 3044.91 345.655 3046.13 346.245 3046.13C346.671 3046.13 346.861 3045.36 346.55 3044.9C346.392 3044.66 346.185 3043.82 346.089 3043.03C345.936 3041.76 345.981 3041.53 346.467 3041.12C346.929 3040.73 347.125 3040.7 347.683 3040.94C348.805 3041.42 349.143 3041.31 348.94 3040.55C348.776 3039.93 348.8 3039.9 349.211 3040.22C349.459 3040.41 349.788 3040.79 349.943 3041.06C350.317 3041.72 350.699 3045 350.506 3045.9L350.353 3046.62H343.973H337.594V3048.58V3050.54H322.283H306.973V3051.52C306.973 3052.48 306.994 3052.5 307.889 3052.5H308.805V3054.96V3057.41H306.973H305.141V3064.4V3071.39H306.188H307.234V3096.04V3120.69H304.617H302V3122.28V3123.88H369H436V3122.28V3120.69H433.121H430.242V3095.92V3071.14H431.289H432.336V3064.28V3057.41H430.766H429.195V3055.06C429.195 3052.91 429.241 3052.69 429.719 3052.58C430.129 3052.48 430.242 3052.24 430.242 3051.49V3050.54H415.193H400.145V3048.58V3046.62H393.896H387.647L387.494 3045.9C387.301 3045 387.683 3041.72 388.057 3041.06C388.212 3040.79 388.541 3040.41 388.789 3040.22C389.2 3039.9 389.224 3039.93 389.06 3040.55C388.857 3041.31 389.195 3041.42 390.317 3040.94C390.876 3040.7 391.071 3040.73 391.533 3041.12C392.019 3041.53 392.064 3041.76 391.911 3043.03C391.815 3043.82 391.608 3044.66 391.45 3044.9C391.139 3045.36 391.329 3046.13 391.755 3046.13C392.345 3046.13 392.762 3044.91 392.914 3042.75C393.06 3040.66 393.029 3040.44 392.524 3039.97C392.029 3039.5 391.993 3039.28 392.152 3037.68C392.309 3036.11 392.263 3035.81 391.739 3034.98L391.15 3034.04L391.851 3033.47C392.236 3033.16 392.745 3032.81 392.981 3032.68C393.328 3032.5 393.417 3032.02 393.441 3030.16C393.457 3028.89 393.571 3027.71 393.693 3027.53C393.962 3027.14 394.003 3027.18 392.597 3026.66C391.508 3026.26 391.428 3026.27 390.634 3026.73C389.555 3027.35 389.087 3028.14 387.953 3031.2C387.437 3032.6 386.923 3033.83 386.811 3033.94C386.698 3034.05 385.865 3034.38 384.959 3034.68C383.894 3035.02 383.123 3035.45 382.777 3035.89C382.027 3036.84 381.904 3039.17 382.494 3041.22C382.747 3042.1 382.964 3043.67 382.978 3044.72L383.002 3046.62L381.469 3046.62C380.11 3046.62 379.958 3046.57 380.129 3046.19C380.445 3045.48 380.874 3041.25 380.855 3039.01C380.841 3037.36 380.692 3036.58 380.125 3035.21C379.244 3033.09 379.028 3031.91 379.472 3031.65C379.695 3031.53 379.811 3030.72 379.831 3029.17C379.848 3027.91 379.962 3026.73 380.084 3026.55C380.352 3026.16 380.392 3026.19 378.994 3025.68C377.942 3025.3 377.814 3025.3 377.132 3025.68C376.729 3025.9 376.097 3026.52 375.728 3027.05L375.057 3028.02L374.631 3027.25C374.289 3026.63 374.065 3026.49 373.501 3026.55C372.95 3026.61 372.768 3026.79 372.663 3027.36C372.499 3028.26 371.912 3028.4 371.071 3027.76L370.439 3027.28L371.091 3026.15L371.743 3025.02L370.96 3024.42C370.53 3024.09 370.031 3023.88 369.851 3023.94C369.671 3024 369.347 3024.12 369.131 3024.2C368.795 3024.33 368.739 3023.93 368.74 3021.44L368.742 3018.54L369.503 3018.13C371.801 3016.9 371.727 3013.77 369.381 3012.98L368.503 3012.68L369.492 3012.27C370.036 3012.04 370.73 3011.55 371.036 3011.19C371.551 3010.58 372.101 3008.48 371.816 3008.22C371.588 3008 370.191 3008.62 369.492 3009.25C368.918 3009.76 368.781 3009.8 368.65 3009.48C368.44 3008.96 367.78 3008.99 367.458 3009.52C367.217 3009.92 367.174 3009.92 366.856 3009.54C366.43 3009.04 364.803 3008.11 364.331 3008.11C364.066 3008.11 364.025 3008.36 364.161 3009.15ZM368.477 3014.63C368.477 3015.1 368.612 3015.22 369.131 3015.22C369.538 3015.22 369.785 3015.36 369.785 3015.59C369.785 3015.82 369.538 3015.96 369.131 3015.96C368.607 3015.96 368.477 3016.08 368.477 3016.57C368.477 3016.95 368.328 3017.19 368.084 3017.19C367.84 3017.19 367.691 3016.95 367.691 3016.57C367.691 3016.08 367.561 3015.96 367.037 3015.96C366.63 3015.96 366.383 3015.82 366.383 3015.59C366.383 3015.36 366.63 3015.22 367.037 3015.22C367.548 3015.22 367.691 3015.1 367.691 3014.65C367.691 3014.34 367.767 3014.01 367.859 3013.92C368.155 3013.64 368.477 3014.01 368.477 3014.63ZM367.953 3026.38C367.953 3027.25 367.65 3027.44 366.958 3027.03C366.686 3026.87 366.681 3026.7 366.935 3026.18C367.395 3025.23 367.953 3025.34 367.953 3026.38ZM346.754 3032.41C346.754 3032.8 346.657 3033.13 346.538 3033.13C346.419 3033.13 346.331 3032.75 346.342 3032.29C346.366 3031.28 346.754 3031.39 346.754 3032.41ZM391.658 3032.27C391.669 3032.74 391.581 3033.13 391.462 3033.13C391.205 3033.13 391.17 3031.81 391.421 3031.58C391.516 3031.49 391.605 3031.41 391.617 3031.41C391.629 3031.41 391.648 3031.8 391.658 3032.27ZM326.863 3096.53V3120.69H322.938H319.012V3096.53V3072.37H322.938H326.863V3096.53ZM347.016 3096.53V3120.69H343.09H339.164V3096.53V3072.37H343.09H347.016V3096.53ZM376.328 3096.53V3120.69H367.822H359.316V3096.53V3072.37H367.822H376.328V3096.53ZM397.527 3096.53V3120.69H393.078H388.629V3096.53V3072.37H393.078H397.527V3096.53ZM418.203 3096.53V3120.69H414.016H409.828V3096.53V3072.37H414.016H418.203V3096.53Z" fill="#F8E3E4"/>
<path fill-rule="evenodd" clip-rule="evenodd" d="M1676.57 3606.75C1675.99 3607.29 1675.9 3608.92 1675.9 3618.43V3629.48H1674.86C1674.29 3629.48 1673.73 3629.72 1673.61 3630.02C1673.48 3630.32 1673.24 3641.46 1673.07 3654.79C1672.88 3668.65 1672.59 3678.91 1672.37 3678.79C1672.16 3678.67 1672.1 3677.99 1672.24 3677.29C1672.4 3676.47 1672.26 3675.72 1671.86 3675.21C1671.28 3674.47 1670.63 3674.39 1664.47 3674.27C1656.86 3674.12 1655.62 3674.44 1655.62 3676.54C1655.62 3678.41 1656.24 3678.63 1661.49 3678.63H1666.34L1669.39 3682.5L1672.44 3686.37L1672.45 3690.46C1672.45 3694.71 1671.22 3772.91 1671.04 3779.92L1670.93 3783.92L1667.88 3785.68C1662.18 3788.96 1656.84 3788.96 1651.09 3785.67C1646.65 3783.13 1645.47 3782.77 1641.58 3782.77C1637.88 3782.77 1638.3 3782.63 1630.49 3786.52C1627.48 3788.01 1623.97 3788.5 1620.92 3787.85C1619.72 3787.59 1617.05 3786.48 1615 3785.38C1610.02 3782.7 1609 3782.53 1607.31 3784.11L1606 3785.33V3792.81V3800.3H1713H1820V3792.81V3785.33L1818.74 3784.15C1817.15 3782.67 1816.41 3782.68 1813.27 3784.24C1805.36 3788.17 1805.81 3788.01 1802.09 3788.01C1798.98 3788.01 1798.32 3787.87 1795.82 3786.65C1794.29 3785.9 1791.97 3784.77 1790.66 3784.14C1785.8 3781.77 1780.79 3782.18 1775.34 3785.39C1771.5 3787.66 1768.41 3788.43 1764.79 3788.05C1762.46 3787.8 1761.47 3787.41 1755.71 3784.49C1754.17 3783.71 1752.18 3782.95 1751.29 3782.8C1750.4 3782.66 1749.67 3782.32 1749.68 3782.05C1749.68 3781.78 1750.25 3777.94 1750.94 3773.51C1753.1 3759.81 1753.34 3756.42 1753.33 3740.47C1753.32 3724.35 1752.84 3719.14 1750.35 3707.7C1742.38 3671.1 1719.48 3644.93 1684.57 3632.52L1680.86 3631.2L1680.64 3619.32C1680.41 3606.64 1680.32 3606.11 1678.25 3606.11C1677.7 3606.11 1676.95 3606.4 1676.57 3606.75ZM1683.31 3642.67C1685.02 3644.39 1690.18 3651.06 1692.74 3654.86C1695.07 3658.34 1700.92 3668.72 1700.92 3669.4C1700.92 3669.61 1696.81 3669.77 1691.21 3669.77H1681.5V3655.67C1681.5 3647.91 1681.66 3641.57 1681.85 3641.57C1682.05 3641.57 1682.7 3642.06 1683.31 3642.67ZM1697.49 3677.34C1698.36 3679.46 1698.56 3680.34 1698.18 3680.48C1697.89 3680.58 1694.07 3680.61 1689.69 3680.55L1681.72 3680.44L1681.59 3677.31L1681.47 3674.18L1688.87 3674.29L1696.28 3674.4L1697.49 3677.34ZM1734.14 3677.13C1734.83 3677.46 1735.27 3678.05 1735.36 3678.76C1735.6 3680.72 1734.89 3681.05 1730.45 3681.05H1726.43L1724.89 3682.8C1723.11 3684.83 1723.05 3685.33 1724.23 3688.23C1725.83 3692.16 1728.97 3702.93 1730.27 3708.98C1734.87 3730.24 1735.09 3753.28 1730.89 3773.27C1729.88 3778.07 1727.42 3787.37 1727.06 3787.7C1726.85 3787.91 1722.97 3786.19 1722.69 3785.77C1722.57 3785.58 1723.05 3783.38 1723.75 3780.88C1725.32 3775.33 1726.49 3769.63 1727.53 3762.43C1728.66 3754.64 1728.66 3732.09 1727.53 3723.95C1725.85 3711.89 1723.27 3701.1 1719.65 3691.03C1718.6 3688.11 1717.75 3685.38 1717.75 3684.97C1717.75 3684.55 1718.23 3683.62 1718.82 3682.9C1720.19 3681.22 1720.18 3681.05 1718.68 3681.05C1716.11 3681.05 1715.13 3677.89 1717.44 3677.03C1718.97 3676.45 1732.87 3676.54 1734.14 3677.13ZM1700.78 3686.64C1701.08 3687.62 1701.45 3688.75 1701.59 3689.17C1701.84 3689.9 1701.46 3689.92 1691.78 3689.82L1681.72 3689.71L1681.59 3687.75C1681.36 3684.47 1680.8 3684.64 1691.07 3684.77L1700.23 3684.87L1700.78 3686.64ZM1703.43 3696.39C1703.71 3697.51 1703.94 3698.6 1703.94 3698.8C1703.94 3699.02 1699.38 3699.18 1692.94 3699.18H1681.94L1681.93 3697.67C1681.93 3696.84 1681.81 3695.75 1681.66 3695.25L1681.4 3694.34H1692.17H1702.93L1703.43 3696.39ZM1705.41 3706.39C1705.98 3710.15 1706.3 3710.05 1693.91 3710.05C1687.63 3710.05 1683.28 3709.89 1682.77 3709.64C1682.07 3709.29 1681.94 3708.78 1681.94 3706.41V3703.6L1693.48 3703.7L1705.02 3703.81L1705.41 3706.39ZM1706.54 3718.34C1706.77 3718.91 1706.96 3720.36 1706.96 3721.56V3723.75H1694.72H1682.48L1682.21 3722.24C1681.8 3719.91 1681.89 3718.32 1682.45 3717.79C1682.83 3717.44 1686.12 3717.31 1694.54 3717.31H1706.12L1706.54 3718.34ZM1707.55 3728.69C1707.69 3729.19 1707.81 3730.37 1707.82 3731.31L1707.82 3733.03L1695.2 3732.92L1682.58 3732.82L1682.45 3730.3L1682.33 3727.78H1694.81H1707.29L1707.55 3728.69ZM1707.82 3739.87V3742.28H1695.31H1682.8V3739.87V3737.45H1695.31H1707.82V3739.87ZM1707.82 3749.13C1707.82 3753.22 1708.01 3753.16 1695.77 3753.16C1690.09 3753.16 1684.95 3752.99 1684.34 3752.77C1683.29 3752.4 1683.23 3752.21 1683.23 3749.55V3746.72H1695.53H1707.82V3749.13ZM1706.88 3762.42C1706.96 3763.41 1706.9 3764.82 1706.75 3765.54L1706.49 3766.86H1695.08H1683.66V3763.91C1683.66 3762.28 1683.79 3760.83 1683.96 3760.68C1684.12 3760.52 1689.31 3760.45 1695.5 3760.51L1706.74 3760.62L1706.88 3762.42ZM1705.94 3773C1705.8 3774.17 1705.67 3775.62 1705.67 3776.23L1705.67 3777.33H1694.94H1684.21L1683.98 3774.41C1683.86 3772.81 1683.84 3771.36 1683.95 3771.19C1684.06 3771.02 1689.11 3770.89 1695.18 3770.89H1706.22L1705.94 3773ZM1704.64 3783.03C1704.49 3783.72 1704.37 3784.52 1704.37 3784.81C1704.37 3785.61 1699.45 3787.72 1696.87 3788.02C1693.65 3788.4 1690.27 3787.64 1687.05 3785.82C1684.73 3784.52 1684.29 3784.09 1684.17 3783.02L1684.04 3781.77H1694.47H1704.91L1704.64 3783.03Z" fill="#F8E3E4"/>
<path fill-rule="evenodd" clip-rule="evenodd" d="M294.912 4922.38C292.908 4922.82 283.445 4927.27 279.694 4929.53C278.008 4930.55 276.698 4931.64 276.305 4932.35C275.704 4933.43 273.483 4940.17 273.661 4940.37C273.706 4940.42 275.725 4940.15 278.146 4939.76C290.066 4937.87 304.939 4937.87 316.859 4939.76C319.28 4940.15 321.299 4940.42 321.344 4940.37C321.522 4940.17 319.301 4933.43 318.7 4932.35C317.958 4931.01 314.582 4928.89 308.369 4925.85C301.245 4922.37 298.357 4921.63 294.912 4922.38ZM287.97 4945.12C280.426 4945.73 271.706 4947.36 271.233 4948.25C270.696 4949.26 268.408 4957.17 268.601 4957.35C268.705 4957.45 271.089 4957.21 273.9 4956.83C286.348 4955.13 289.303 4954.89 297.503 4954.89C305.702 4954.89 308.657 4955.13 321.105 4956.83C323.916 4957.21 326.3 4957.45 326.404 4957.35C326.597 4957.17 324.309 4949.26 323.772 4948.25C323.466 4947.68 318.647 4946.55 313.326 4945.8C305.91 4944.76 295.709 4944.49 287.97 4945.12ZM292.736 4961.28C285.022 4961.98 281.932 4962.31 276.203 4963.07C254.422 4965.94 240.34 4969.56 225.304 4976.14C215.377 4980.49 208.963 4984.53 203.727 4989.74C200.326 4993.12 199.736 4994.07 200.09 4995.57C200.394 4996.86 201.054 4997.36 204.7 4999.05C213.147 5002.97 223.62 5005.37 235.929 5006.2C244.385 5006.76 243.452 5007.04 244.487 5003.63C245.484 5000.34 248.503 4992.95 249.335 4991.77C250.038 4990.77 250.858 4990.48 257.277 4989.01C273.416 4985.29 291.739 4983.39 303.889 4984.17C315.386 4984.9 327.254 4986.6 337.728 4989.01C344.147 4990.48 344.967 4990.77 345.67 4991.77C346.502 4992.95 349.521 5000.34 350.518 5003.63C351.553 5007.04 350.62 5006.76 359.077 5006.2C371.385 5005.37 381.858 5002.97 390.305 4999.05C392.005 4998.26 393.693 4997.37 394.056 4997.07C395.074 4996.21 395.317 4994.29 394.546 4993.19C393.306 4991.43 388.046 4986.55 385.198 4984.53C376.436 4978.3 359.809 4971.36 344.782 4967.66C329.489 4963.9 301.592 4960.47 292.736 4961.28ZM278.065 4968.01C281.251 4969.54 280.198 4973.88 276.645 4973.85C275.849 4973.85 274.925 4973.65 274.592 4973.41C272.662 4972.03 272.74 4969.3 274.741 4968.16C276.21 4967.33 276.621 4967.31 278.065 4968.01ZM299.303 4968.17C302.178 4969.8 300.903 4973.88 297.526 4973.85C293.02 4973.82 292.997 4967.66 297.503 4967.49C297.817 4967.48 298.627 4967.79 299.303 4968.17ZM320.264 4968.16C322.265 4969.3 322.343 4972.03 320.413 4973.41C320.08 4973.65 319.156 4973.85 318.36 4973.85C314.858 4973.88 313.757 4969.59 316.862 4968.02C318.251 4967.32 318.821 4967.34 320.264 4968.16ZM258.057 4975.09C259.769 4976.69 259.161 4979.23 256.851 4980.13C253.407 4981.47 250.628 4977.3 253.375 4974.92C254.552 4973.9 256.866 4973.98 258.057 4975.09ZM341.63 4974.92C343.43 4976.48 342.999 4979.08 340.775 4980.06C339.619 4980.57 339.324 4980.58 338.155 4980.13C334.665 4978.77 335.589 4974.22 339.355 4974.22C340.29 4974.22 341.118 4974.48 341.63 4974.92ZM239.985 4981C240.409 4981.21 241 4981.93 241.3 4982.6C242.743 4985.82 238.334 4988.47 235.783 4985.92C235.38 4985.51 234.972 4984.81 234.879 4984.35C234.662 4983.29 235.457 4981.51 236.367 4981.02C237.279 4980.52 239.013 4980.52 239.985 4981ZM358.564 4981C359.525 4981.48 360.352 4983.25 360.127 4984.35C359.508 4987.36 354.956 4987.82 353.69 4985C353.236 4983.99 353.238 4983.64 353.702 4982.61C353.999 4981.94 354.559 4981.23 354.946 4981.02C355.859 4980.53 357.592 4980.52 358.564 4981ZM218.945 4990.74C220.287 4991.39 221.054 4993.25 220.518 4994.57C219.665 4996.66 216.612 4997.3 214.937 4995.74C213.681 4994.57 213.642 4992.42 214.859 4991.39C216.349 4990.12 217.339 4989.97 218.945 4990.74ZM291.593 4990.6C281.421 4991.24 270.75 4992.75 260.316 4995.03L254.587 4996.27L253.188 4999.73C249.6 5008.59 248.188 5015.51 248.167 5024.33C248.155 5029.68 248.271 5030.96 249.003 5033.47C251.124 5040.77 255.559 5047.26 261.361 5051.58L264.011 5053.55L261.978 5054.7C260.861 5055.33 256.857 5057.72 253.083 5060.01C242.333 5066.53 236.626 5068.82 232.55 5068.25C227.582 5067.55 224.892 5062.76 227.763 5059.71C229.255 5058.12 231.15 5057.56 233.403 5058.04C236.132 5058.62 238.174 5057.34 238.174 5055.06C238.174 5050.4 228.567 5050.01 223.462 5054.46C219.386 5058.01 218.381 5062.86 220.779 5067.4C223.886 5073.29 230.24 5075.8 238.212 5074.31C242.338 5073.54 247.973 5070.87 256.735 5065.53C263.424 5061.45 267.539 5059.13 269.001 5058.61C269.609 5058.39 269.669 5058.69 269.669 5061.92C269.669 5072.23 273.396 5080.93 279.9 5085.79C284.318 5089.1 288.918 5090.65 295.433 5091.02C304.365 5091.54 311.616 5089.21 317.283 5084.01C322.152 5079.54 325.336 5070.77 325.336 5061.82V5058.18L323.525 5057.46C320.717 5056.33 317.173 5055.58 313.569 5055.35C311.758 5055.23 309.902 5054.91 309.446 5054.64C307.542 5053.49 307.69 5050.36 309.695 5049.39C312.661 5047.96 322.439 5049.59 328.749 5052.57C331.056 5053.66 331.1 5053.53 327.838 5055.34C326.247 5056.22 325.187 5057.53 325.574 5058.15C325.655 5058.28 326.965 5059.03 328.484 5059.81C330.003 5060.6 334.421 5063.17 338.3 5065.54C350.421 5072.94 356.261 5075.14 362.644 5074.69C369.859 5074.18 375.421 5068.89 375.445 5062.52C375.453 5060.51 375.252 5059.64 374.412 5058.04C371.785 5053.03 365.511 5050.27 360.005 5051.7C357.008 5052.47 355.811 5055.41 357.765 5057.19C358.862 5058.19 359.598 5058.32 362.003 5057.97C368.277 5057.04 370.798 5063.84 365.43 5067.22C361.053 5069.97 355.273 5068.1 340.397 5059.12C335.993 5056.47 332.069 5054.13 331.676 5053.93C331.042 5053.61 331.261 5053.35 333.628 5051.59C339.441 5047.27 343.855 5040.83 345.985 5033.57C346.768 5030.9 346.867 5029.8 346.838 5024.15C346.793 5015.2 345.488 5008.87 341.809 4999.73L340.418 4996.27L334.689 4995.03C323.835 4992.66 314.087 4991.31 302.459 4990.57C299.419 4990.38 296.759 4990.24 296.549 4990.27C296.34 4990.29 294.109 4990.44 291.593 4990.6ZM380.128 4991.35C382.147 4993.11 380.645 4996.61 377.866 4996.61C375.328 4996.61 373.765 4994.66 374.542 4992.47C375.33 4990.24 378.207 4989.66 380.128 4991.35ZM291.807 4993.77C291.996 4993.77 293.358 4994.83 294.834 4996.13L297.517 4998.49L299.95 4996.31C301.288 4995.11 302.794 4993.99 303.298 4993.81C305.53 4993.02 307.797 4994.57 307.797 4996.89C307.797 4998.02 307.341 4998.58 303.434 5002.26C299.275 5006.17 298.996 5006.37 297.503 5006.37C296.009 5006.37 295.73 5006.17 291.571 5002.26C287.664 4998.58 287.208 4998.02 287.208 4996.89C287.208 4994.85 289.132 4993.18 290.957 4993.64C291.236 4993.71 291.619 4993.77 291.807 4993.77ZM275.417 5004.4C276.03 5004.97 276.532 5005.76 276.532 5006.15C276.532 5006.66 276.934 5006.98 277.962 5007.27C278.748 5007.5 280.119 5008.03 281.009 5008.45C282.362 5009.1 282.752 5009.15 283.387 5008.78C286.295 5007.09 290.184 5010.62 288.198 5013.15C287.729 5013.75 287.769 5014.03 288.527 5015.44C289.003 5016.32 289.6 5017.64 289.854 5018.38C290.207 5019.39 290.52 5019.71 291.174 5019.71C292.075 5019.71 293.398 5020.84 293.834 5021.99C293.976 5022.36 293.897 5023.21 293.66 5023.88C293.326 5024.82 292.852 5025.25 291.553 5025.77C290.631 5026.14 289.877 5026.64 289.876 5026.89C289.876 5027.15 289.375 5028.34 288.763 5029.54C287.788 5031.46 287.716 5031.82 288.18 5032.39C288.833 5033.19 288.87 5035.33 288.244 5036.09C287.099 5037.48 284.92 5037.87 283.491 5036.93C282.73 5036.44 282.526 5036.45 281.214 5037.07C280.421 5037.45 279.044 5037.96 278.152 5038.21C276.882 5038.56 276.532 5038.83 276.532 5039.44C276.532 5040.72 274.75 5042.1 273.1 5042.1C271.451 5042.1 269.669 5040.72 269.669 5039.44C269.669 5038.83 269.318 5038.56 268.048 5038.21C267.157 5037.96 265.779 5037.45 264.986 5037.07C263.674 5036.45 263.47 5036.44 262.709 5036.93C261.281 5037.87 259.101 5037.48 257.956 5036.09C257.33 5035.33 257.368 5033.19 258.021 5032.39C258.484 5031.82 258.412 5031.46 257.437 5029.54C256.825 5028.34 256.324 5027.15 256.324 5026.89C256.324 5026.64 255.569 5026.14 254.647 5025.77C253.349 5025.25 252.874 5024.82 252.54 5023.88C252.303 5023.21 252.225 5022.36 252.367 5021.99C252.803 5020.84 254.125 5019.71 255.026 5019.71C255.68 5019.71 255.993 5019.39 256.346 5018.38C256.601 5017.64 257.198 5016.32 257.673 5015.44C258.431 5014.03 258.471 5013.75 258.002 5013.15C256.017 5010.62 259.905 5007.09 262.813 5008.78C263.449 5009.15 263.838 5009.1 265.191 5008.45C266.081 5008.03 267.453 5007.5 268.239 5007.27C269.267 5006.98 269.669 5006.66 269.669 5006.15C269.669 5005.02 271.705 5003.36 273.1 5003.36C273.921 5003.36 274.657 5003.69 275.417 5004.4ZM324.222 5004.4C324.835 5004.97 325.336 5005.76 325.336 5006.15C325.336 5006.66 325.738 5006.98 326.766 5007.27C327.553 5007.5 328.924 5008.03 329.814 5008.45C331.167 5009.1 331.556 5009.15 332.192 5008.78C335.1 5007.09 338.988 5010.62 337.003 5013.15C336.534 5013.75 336.574 5014.03 337.332 5015.44C337.807 5016.32 338.404 5017.64 338.659 5018.38C339.012 5019.39 339.325 5019.71 339.979 5019.71C340.451 5019.71 341.19 5020.07 341.622 5020.51C343.54 5022.46 342.99 5024.72 340.334 5025.78C339.425 5026.14 338.681 5026.64 338.681 5026.89C338.681 5027.15 338.18 5028.34 337.568 5029.54C336.593 5031.46 336.521 5031.82 336.984 5032.39C337.638 5033.19 337.675 5035.33 337.049 5036.09C335.904 5037.48 333.724 5037.87 332.296 5036.93C331.535 5036.44 331.331 5036.45 330.019 5037.07C329.226 5037.45 327.848 5037.96 326.957 5038.21C325.687 5038.56 325.336 5038.83 325.336 5039.44C325.336 5039.87 324.884 5040.65 324.331 5041.16C322.409 5042.95 319.136 5042.08 318.611 5039.63C318.441 5038.84 318.079 5038.55 316.815 5038.2C315.945 5037.95 314.584 5037.45 313.791 5037.07C312.479 5036.45 312.275 5036.44 311.514 5036.93C310.085 5037.87 307.906 5037.48 306.761 5036.09C306.135 5035.33 306.172 5033.19 306.825 5032.39C307.289 5031.82 307.217 5031.46 306.242 5029.54C305.63 5028.34 305.129 5027.15 305.129 5026.89C305.128 5026.64 304.374 5026.14 303.452 5025.77C302.153 5025.25 301.679 5024.82 301.345 5023.88C301.108 5023.21 301.029 5022.36 301.171 5021.99C301.607 5020.84 302.93 5019.71 303.831 5019.71C304.485 5019.71 304.798 5019.39 305.151 5018.38C305.405 5017.64 306.011 5016.31 306.497 5015.4C307.275 5013.95 307.316 5013.68 306.838 5013.09C304.82 5010.61 308.717 5007.09 311.618 5008.78C312.253 5009.15 312.643 5009.1 313.996 5008.45C314.886 5008.03 316.257 5007.5 317.043 5007.27C318.071 5006.98 318.473 5006.66 318.473 5006.15C318.473 5005.02 320.509 5003.36 321.905 5003.36C322.725 5003.36 323.461 5003.69 324.222 5004.4ZM270.705 5013.33C263.5 5014.99 260.363 5023.2 264.84 5028.67C266.626 5030.86 270.181 5032.5 273.1 5032.5C277.324 5032.5 281.934 5029.4 282.996 5025.83C284.415 5021.07 282.01 5015.91 277.485 5014C275.563 5013.19 272.577 5012.9 270.705 5013.33ZM319.51 5013.33C312.304 5014.99 309.168 5023.2 313.644 5028.67C315.431 5030.86 318.986 5032.5 321.905 5032.5C326.128 5032.5 330.739 5029.4 331.801 5025.83C333.22 5021.07 330.814 5015.91 326.29 5014C324.367 5013.19 321.382 5012.9 319.51 5013.33ZM298.754 5039.39C299.429 5039.65 300.967 5040.84 302.173 5042.02C303.989 5043.81 304.366 5044.39 304.366 5045.43C304.366 5048.26 301.194 5049.6 298.652 5047.85L297.503 5047.05L296.353 5047.85C293.811 5049.6 290.639 5048.26 290.639 5045.43C290.639 5044.39 291.016 5043.81 292.832 5042.03C294.584 5040.3 296.447 5039.04 297.419 5038.92C297.479 5038.91 298.079 5039.12 298.754 5039.39ZM285.311 5049.39C287.311 5050.35 287.456 5053.48 285.558 5054.72C285.106 5055.02 283.907 5055.25 282.833 5055.25C279.244 5055.26 274.117 5056.34 270.341 5057.89C269.84 5058.1 269.587 5057.94 269.3 5057.24C269.092 5056.72 268.131 5055.87 267.163 5055.33C263.894 5053.52 263.931 5053.67 266.446 5052.5C272.789 5049.54 282.355 5047.96 285.311 5049.39ZM286.076 5062.9C286.697 5063.52 286.961 5064.33 287.111 5066.06L287.312 5068.4H290.692H294.071V5066.25C294.071 5063.78 294.725 5062.59 296.384 5062.05C297.816 5061.58 299.526 5062.11 300.337 5063.26C300.712 5063.79 300.934 5064.91 300.934 5066.25V5068.4H304.313H307.693L307.896 5066.04C308.147 5063.13 309.173 5061.93 311.42 5061.93C313.695 5061.93 314.775 5063.19 314.972 5066.08C315.077 5067.62 315.291 5068.4 315.607 5068.4C316.445 5068.4 317.998 5069.78 318.262 5070.76C318.648 5072.19 317.796 5073.67 316.131 5074.47C315.322 5074.85 314.66 5075.41 314.66 5075.71C314.66 5076.52 312.77 5077.99 311.72 5077.99C309.995 5077.99 308.216 5076.69 308.191 5075.42C308.18 5074.87 307.747 5074.8 304.556 5074.8C301.512 5074.8 300.934 5074.88 300.934 5075.36C300.934 5076.36 298.813 5077.99 297.503 5077.99C296.192 5077.99 294.071 5076.36 294.071 5075.36C294.071 5074.89 293.497 5074.8 290.496 5074.8H286.922L286.696 5075.85C286.45 5076.99 284.858 5077.99 283.279 5077.99C282.234 5077.99 280.345 5076.52 280.345 5075.71C280.345 5075.41 279.673 5074.85 278.852 5074.46C276.05 5073.12 275.956 5069.97 278.683 5068.75C279.806 5068.25 279.891 5068.08 280.035 5066.01C280.153 5064.31 280.394 5063.6 281.077 5062.92C282.508 5061.5 284.654 5061.49 286.076 5062.9Z" fill="#F8E3E4"/>
<circle cx="819.018" cy="463.13" r="37.0179" fill="#F8E3E4"/>
<defs>
<filter id="filter0_f_26_8" x="-500" y="0.112549" width="1594" height="1594" filterUnits="userSpaceOnUse" color-interpolation-filters="sRGB">
<feFlood flood-opacity="0" result="BackgroundImageFix"/>
<feBlend mode="normal" in="SourceGraphic" in2="BackgroundImageFix" result="shape"/>
<feGaussianBlur stdDeviation="250" result="effect1_foregroundBlur_26_8"/>
</filter>
<filter id="filter1_f_26_8" x="447" y="535" width="1804" height="1804" filterUnits="userSpaceOnUse" color-interpolation-filters="sRGB">
<feFlood flood-opacity="0" result="BackgroundImageFix"/>
<feBlend mode="normal" in="SourceGraphic" in2="BackgroundImageFix" result="shape"/>
<feGaussianBlur stdDeviation="250" result="effect1_foregroundBlur_26_8"/>
</filter>
</defs>
</svg>
