<svg width="300" height="299" viewBox="0 0 300 299" fill="none" xmlns="http://www.w3.org/2000/svg">
<path d="M0 80.9077V68.9256C1.10457 68.9256 2 68.0302 2 66.9256V60C2 57.8591 2 55.8015 2.0038 53.8214C2.00593 52.7174 1.11304 51.8206 0.00918009 51.8176C0.0222335 48.1377 0.0538479 44.7336 0.130416 41.579C1.23096 41.6099 2.15017 40.7449 2.18525 39.6435C2.33184 35.0411 2.59354 31.0424 3.05586 27.5336C3.19889 26.4481 2.44282 25.4514 1.36301 25.2934C1.97755 21.5085 2.86916 18.2765 4.16279 15.4724C5.11346 15.9582 6.28642 15.6104 6.81466 14.6715C7.74621 13.0159 8.86077 11.5412 10.201 10.201C11.5412 8.86077 13.0159 7.74621 14.6715 6.81466C15.6104 6.28642 15.9582 5.11346 15.4724 4.16279C18.2765 2.86916 21.5085 1.97755 25.2934 1.36301C25.4514 2.44282 26.4481 3.19889 27.5336 3.05586C31.0424 2.59354 35.0411 2.33184 39.6435 2.18525C40.7449 2.15017 41.6099 1.23096 41.579 0.130416C44.7337 0.0538478 48.1377 0.0222335 51.8176 0.00918008C51.8206 1.11304 52.7174 2.00593 53.8215 2.0038C55.8015 2 57.8591 2 60 2H66.9643C68.0689 2 68.9643 1.10457 68.9643 0H81.0357C81.0357 1.10457 81.9312 2 83.0357 2H96.9643C98.0689 2 98.9643 1.10457 98.9643 0H111.036C111.036 1.10457 111.931 2 113.036 2H126.964C128.069 2 128.964 1.10457 128.964 0H141.036C141.036 1.10457 141.931 2 143.036 2H156.964C158.069 2 158.964 1.10457 158.964 0H171.036C171.036 1.10457 171.931 2 173.036 2H186.964C188.069 2 188.964 1.10457 188.964 0H201.036C201.036 1.10457 201.931 2 203.036 2H216.964C218.069 2 218.964 1.10457 218.964 0H231.036C231.036 1.10457 231.931 2 233.036 2H240C242.141 2 244.199 2 246.179 2.0038C247.283 2.00593 248.179 1.11304 248.182 0.00918011C251.862 0.0222335 255.266 0.0538479 258.421 0.130416C258.39 1.23096 259.255 2.15017 260.357 2.18525C264.959 2.33184 268.958 2.59354 272.466 3.05586C273.552 3.19889 274.549 2.44282 274.707 1.36301C278.492 1.97755 281.724 2.86916 284.528 4.16278C284.042 5.11346 284.39 6.28641 285.328 6.81466C286.984 7.74621 288.459 8.86077 289.799 10.201C291.139 11.5412 292.254 13.0159 293.185 14.6715C293.714 15.6104 294.887 15.9582 295.837 15.4724C297.131 18.2765 298.022 21.5085 298.637 25.2934C297.557 25.4514 296.801 26.4481 296.944 27.5336C297.406 31.0424 297.668 35.0411 297.815 39.6435C297.85 40.7449 298.769 41.6099 299.87 41.579C299.946 44.7337 299.978 48.1377 299.991 51.8176C298.887 51.8206 297.994 52.7174 297.996 53.8215C298 55.8015 298 57.8591 298 60V66.9256C298 68.0302 298.895 68.9256 300 68.9256V80.9077C298.895 80.9077 298 81.8032 298 82.9077V96.7589C298 97.8635 298.895 98.7589 300 98.7589V110.741C298.895 110.741 298 111.637 298 112.741V126.592C298 127.697 298.895 128.592 300 128.592V140.574C298.895 140.574 298 141.47 298 142.574V156.426C298 157.53 298.895 158.426 300 158.426V170.408C298.895 170.408 298 171.303 298 172.408V186.259C298 187.363 298.895 188.259 300 188.259V200.241C298.895 200.241 298 201.137 298 202.241V216.092C298 217.197 298.895 218.092 300 218.092V230.074C298.895 230.074 298 230.97 298 232.074V239C298 241.141 298 243.198 297.996 245.179C297.994 246.283 298.887 247.179 299.991 247.182C299.978 250.862 299.946 254.266 299.87 257.421C298.769 257.39 297.85 258.255 297.815 259.357C297.668 263.959 297.406 267.958 296.944 271.466C296.801 272.552 297.557 273.549 298.637 273.707C298.022 277.492 297.131 280.724 295.837 283.528C294.887 283.042 293.714 283.39 293.185 284.328C292.254 285.984 291.139 287.459 289.799 288.799C288.459 290.139 286.984 291.254 285.328 292.185C284.39 292.714 284.042 293.887 284.528 294.837C281.724 296.131 278.492 297.022 274.707 297.637C274.549 296.557 273.552 295.801 272.466 295.944C268.958 296.406 264.959 296.668 260.357 296.815C259.255 296.85 258.39 297.769 258.421 298.87C255.266 298.946 251.862 298.978 248.182 298.991C248.179 297.887 247.283 296.994 246.179 296.996C244.199 297 242.141 297 240 297H233.036C231.931 297 231.036 297.895 231.036 299H218.964C218.964 297.895 218.069 297 216.964 297H203.036C201.931 297 201.036 297.895 201.036 299H188.964C188.964 297.895 188.069 297 186.964 297H173.036C171.931 297 171.036 297.895 171.036 299H158.964C158.964 297.895 158.069 297 156.964 297H143.036C141.931 297 141.036 297.895 141.036 299H128.964C128.964 297.895 128.069 297 126.964 297H113.036C111.931 297 111.036 297.895 111.036 299H98.9643C98.9643 297.895 98.0688 297 96.9643 297H83.0357C81.9311 297 81.0357 297.895 81.0357 299H68.9643C68.9643 297.895 68.0688 297 66.9643 297H60C57.8591 297 55.8015 297 53.8214 296.996C52.7174 296.994 51.8205 297.887 51.8176 298.991C48.1377 298.978 44.7336 298.946 41.579 298.87C41.6099 297.769 40.7449 296.85 39.6435 296.815C35.0411 296.668 31.0424 296.406 27.5336 295.944C26.4481 295.801 25.4514 296.557 25.2934 297.637C21.5085 297.022 18.2765 296.131 15.4724 294.837C15.9582 293.887 15.6104 292.714 14.6715 292.185C13.0159 291.254 11.5412 290.139 10.201 288.799C8.86077 287.459 7.74621 285.984 6.81466 284.328C6.28641 283.39 5.11346 283.042 4.16278 283.528C2.86916 280.724 1.97755 277.491 1.36301 273.707C2.44282 273.549 3.19889 272.552 3.05586 271.466C2.59353 267.958 2.33184 263.959 2.18525 259.357C2.15017 258.255 1.23096 257.39 0.130416 257.421C0.0538479 254.266 0.0222335 250.862 0.00918009 247.182C1.11304 247.179 2.00593 246.283 2.0038 245.179C2 243.198 2 241.141 2 239V232.074C2 230.97 1.10457 230.074 0 230.074V218.092C1.10457 218.092 2 217.197 2 216.092V202.241C2 201.136 1.10457 200.241 0 200.241V188.259C1.10457 188.259 2 187.363 2 186.259V172.408C2 171.303 1.10457 170.408 0 170.408V158.426C1.10457 158.426 2 157.53 2 156.426V142.574C2 141.47 1.10457 140.574 0 140.574V128.592C1.10457 128.592 2 127.697 2 126.592V112.741C2 111.636 1.10457 110.741 0 110.741V98.7589C1.10457 98.7589 2 97.8635 2 96.7589V82.9077C2 81.8032 1.10457 80.9077 0 80.9077Z" stroke="#EED7D8" stroke-width="4" stroke-linecap="round" stroke-linejoin="round" stroke-dasharray="13 15"/>
</svg>
