<svg width="160" height="170" viewBox="0 0 160 170" fill="none" xmlns="http://www.w3.org/2000/svg">
<g filter="url(#filter0_d_1951_26)">
<path d="M35 53C35 37.9151 35 30.3726 39.6863 25.6863C44.3726 21 51.9151 21 67 21H83C98.0849 21 105.627 21 110.314 25.6863C115 30.3726 115 37.9151 115 53V69C115 84.0849 115 91.6274 110.314 96.3137C105.627 101 98.0849 101 83 101H67C51.9151 101 44.3726 101 39.6863 96.3137C35 91.6274 35 84.0849 35 69V53Z" fill="#ED1C24"/>
</g>
<path fill-rule="evenodd" clip-rule="evenodd" d="M69.7533 37.7867C68.0939 38.0015 65.9143 38.8904 64.5944 39.8906C62.2303 41.6822 60.2286 44.842 59.5063 47.9223L59.3365 48.6468L58.239 49.7616C56.6899 51.3353 56.3424 52.1807 56.6895 53.5312C56.8996 54.348 57.2401 54.8495 58.2909 55.8894L59.1673 56.7567L59.1654 58.0628C59.1634 59.4871 59.0542 60.4663 58.8178 61.1823C58.624 61.7692 58.6255 62.8202 58.8209 63.3637C59.0406 63.9747 59.5873 64.6684 60.114 65.0045C60.9325 65.5267 63.2286 66.4363 65.2742 67.0487C65.834 67.2163 66.5755 67.4986 66.9221 67.676C67.2686 67.8534 67.7095 68.0275 67.9019 68.0628L68.2515 68.127L68.3087 70.0266C68.369 72.0278 68.4725 72.6649 68.9176 73.7734C69.1612 74.3802 69.1636 74.4105 69.0678 75.7031C68.9616 77.1368 69.0067 77.3836 69.4091 77.5663C69.749 77.7206 69.8844 77.701 70.1688 77.4562C70.4118 77.2472 70.4255 77.179 70.5277 75.6745C70.6321 74.1382 70.6301 74.101 70.4109 73.5977C70.2882 73.3159 70.1312 72.9005 70.0621 72.6748L69.9363 72.2642H76.3843H82.8324L82.7669 72.4816C82.7308 72.6012 82.5934 72.9721 82.4615 73.306L82.2217 73.913L82.5187 75.1413C83.0589 77.3748 83.691 80.7573 83.6915 81.4166L83.6917 81.7305L82.6497 81.7339C82.0765 81.7358 81.2587 81.8001 80.8321 81.8769C79.6705 82.0861 79.7558 82.1323 79.6251 81.2234C79.5621 80.7851 79.3837 79.7745 79.2286 78.9776C78.9818 77.7094 78.9142 77.5006 78.6872 77.3033C78.4753 77.1193 78.3639 77.0901 78.079 77.1441C77.1023 77.3293 76.4871 77.3747 75.6877 77.3206C74.8252 77.2623 74.8047 77.2658 74.611 77.5112C74.463 77.6987 74.3851 78.0224 74.3 78.8041C74.1841 79.8681 73.8911 82.0508 73.8587 82.0907C73.8489 82.1029 73.3352 81.9855 72.717 81.8299C72.0989 81.6744 71.2177 81.4948 70.7589 81.4308L69.9247 81.3146L69.9852 80.7256C70.0364 80.228 70.0164 80.1005 69.8561 79.9033C69.6141 79.6055 69.1248 79.5891 68.8435 79.8694C68.5793 80.1329 68.1463 82.4935 68.1391 83.7107C68.1346 84.4575 68.1704 84.6578 68.3927 85.1303C68.7231 85.8331 69.3474 86.4539 70.0785 86.8071C70.5807 87.0496 70.7653 87.0853 71.5265 87.0868C72.2682 87.0883 72.4787 87.0508 72.932 86.8364C74.2271 86.224 74.742 85.423 75.1 83.463C75.2304 82.7492 75.4112 81.6001 75.5017 80.9095C75.5922 80.2188 75.6944 79.4664 75.7289 79.2374L75.7916 78.821L76.7585 78.8027L77.7254 78.7844L77.7862 79.1225C78.1312 81.0406 78.2862 82.092 78.4014 83.2952C78.524 84.5758 78.5684 84.7728 78.854 85.3069C79.2225 85.9956 79.744 86.4823 80.4929 86.8364C80.9461 87.0508 81.1567 87.0883 81.8984 87.0868C82.6528 87.0853 82.8461 87.0487 83.327 86.8163C84.0337 86.4746 84.6688 85.843 85.018 85.1344C85.2796 84.6035 85.2908 84.5231 85.2834 83.2278C85.2734 81.4685 84.9324 79.2366 84.1186 75.6042L83.774 74.0661L84.0138 73.3342C84.1456 72.9317 84.2838 72.4169 84.3207 72.1902L84.3878 71.7781L84.7549 72.2385C84.9567 72.4917 85.3253 73.0333 85.574 73.4421C86.4665 74.9095 87.4492 75.494 88.9261 75.4359C89.6055 75.4093 89.8487 75.3538 90.3117 75.12C90.9958 74.7745 91.5715 74.1717 91.9156 73.4403C92.135 72.974 92.1734 72.7623 92.1734 72.0228C92.1734 71.2725 92.1362 71.0742 91.902 70.5758C91.5191 69.7608 90.5221 68.2975 89.7177 67.37L89.0337 66.581L89.9734 66.2205C91.4682 65.6472 92.5096 65.142 92.9673 64.7683C93.522 64.3154 93.9281 63.5913 94.0692 62.8039C94.1724 62.2276 94.1603 62.078 93.9363 61.1558C93.575 59.6688 93.5477 59.0419 93.6749 55.1606C93.7608 52.5385 93.7626 51.3483 93.6819 50.4923C93.42 47.7131 92.5906 45.2741 91.1823 43.1409C90.1428 41.5666 89.6442 41.2326 89.1369 41.7706C88.8335 42.0925 88.8746 42.4309 89.2818 42.9625C90.9843 45.185 91.9404 47.6413 92.2271 50.529C92.3104 51.3671 92.3085 52.5131 92.2195 55.2139C92.0918 59.0877 92.1442 60.1824 92.5212 61.5233C92.7439 62.3151 92.7146 62.6312 92.3621 63.2426C92.1889 63.5429 91.974 63.7223 91.4749 63.983C90.8011 64.3352 89.2757 64.9603 88.3723 65.2545L87.8669 65.4192L87.0152 64.6751C86.5468 64.2659 85.6025 63.514 84.9169 63.0044C84.0358 62.3495 83.7089 62.0551 83.8021 62.0008C85.5331 60.9931 86.1632 60.534 87.0672 59.6219C88.6131 58.0622 89.6962 55.9211 89.9983 53.8273C90.1574 52.7254 90.0699 50.9819 89.8039 49.9508C89.5863 49.1076 88.7766 47.2855 88.5309 47.0861C88.455 47.0246 87.9634 46.9233 87.4384 46.8611C84.9722 46.5688 81.4952 45.4236 78.2818 43.8454C76.867 43.1504 76.6565 43.0738 76.2799 43.1161C76.0225 43.1449 75.244 43.4658 74.2744 43.9426C71.6955 45.2107 68.8228 46.2137 66.4062 46.6896C65.4028 46.8871 65.3459 46.8888 65.0976 46.7277C64.5344 46.3626 64.1344 46.241 63.3734 46.2036C62.7069 46.1708 62.4981 46.2009 62.0001 46.4013L61.4126 46.6378L61.4948 46.4222C62.0053 45.0845 63.1171 43.3274 64.1168 42.2787C66.9688 39.2868 70.7823 38.4178 75.0982 39.7764C76.0782 40.0849 76.6676 40.0859 77.6361 39.7805C80.744 38.8009 83.5441 38.9584 86.0048 40.2517C86.9516 40.7493 87.2764 40.785 87.562 40.4232C88.0199 39.8432 87.7273 39.4471 86.3574 38.7926C83.6848 37.5155 80.8889 37.3592 77.5246 38.2989C76.4413 38.6015 76.3474 38.6127 75.937 38.489C73.5644 37.7735 71.5889 37.5491 69.7533 37.7867ZM77.9952 45.306C78.8624 45.7264 79.9864 46.2317 80.4929 46.429C82.7625 47.3125 85.5572 48.1016 87.0188 48.2714C87.6807 48.3483 87.7324 48.4061 88.1415 49.5252C88.8611 51.4942 88.7914 53.7748 87.9512 55.7465C86.8569 58.3146 84.4536 60.386 81.4082 61.3858C78.9444 62.1947 75.4317 62.3512 72.8108 61.7687C72.2496 61.644 72.1563 61.5935 72.1555 61.4137C72.1549 61.2984 72.0512 60.7487 71.925 60.192L71.6955 59.18L72.2155 58.6075C72.8335 57.9269 73.1007 57.4123 73.2222 56.6679C73.3998 55.5805 73.0493 54.6038 72.1444 53.6647C71.7424 53.2475 71.5988 53.0419 71.7094 53.0419C71.8002 53.0419 71.9816 52.9351 72.1124 52.8047C72.3282 52.5898 72.3504 52.4901 72.3504 51.7378C72.3504 50.9855 72.3282 50.8859 72.1124 50.6709C71.8271 50.3866 71.485 50.3673 71.1737 50.6182C70.9765 50.777 70.9382 50.9112 70.8964 51.5858L70.8479 52.3691L68.7303 50.2564L66.6127 48.1436L67.5671 47.9279C69.6732 47.4518 73.1329 46.1687 75.2584 45.0751C75.8182 44.7871 76.3082 44.5491 76.3473 44.5464C76.3864 44.5437 77.1279 44.8855 77.9952 45.306ZM64.0431 47.7878C64.4924 48.0126 71.3538 54.8461 71.5946 55.3084C71.9331 55.9585 71.8117 56.9924 71.3523 57.3723C71.2372 57.4675 71.1765 57.3851 70.994 56.8861C70.7311 56.1677 69.9517 55.336 69.2 54.9719C68.7924 54.7745 68.569 54.7368 67.7945 54.7347C66.999 54.7326 66.7995 54.7669 66.3288 54.9868C64.6427 55.7747 63.9548 57.463 64.5287 59.4058L64.7679 60.2156L61.5735 57.0392C59.8166 55.2922 58.3218 53.7542 58.2518 53.6214C58.0272 53.1956 57.9792 52.7515 58.1073 52.2835C58.2147 51.8906 58.4679 51.5945 60.1285 49.9185C61.1726 48.8646 62.1796 47.9212 62.3662 47.8218C62.7923 47.5948 63.6238 47.578 64.0431 47.7878ZM63.0447 49.5373C62.6294 49.6867 62.4087 50.2518 62.6342 50.5884C62.7314 50.7334 63.0947 50.9168 63.2851 50.9168C63.5218 50.9168 63.9171 50.4731 63.9171 50.2074C63.9171 49.7839 63.4202 49.4023 63.0447 49.5373ZM83.2686 50.634C83.0252 50.8248 83.0132 50.8767 83.0132 51.7378C83.0132 52.599 83.0252 52.6508 83.2686 52.8416C83.6105 53.1097 83.939 53.094 84.2387 52.7954C84.4736 52.5613 84.4844 52.5046 84.4524 51.6759C84.4223 50.8965 84.3942 50.7832 84.1898 50.6184C83.8934 50.3792 83.587 50.3844 83.2686 50.634ZM65.0128 51.7064C64.5362 51.9406 64.5714 52.7352 65.0673 52.9399C65.7416 53.2182 66.3446 52.4447 65.88 51.8975C65.6703 51.6505 65.2948 51.5678 65.0128 51.7064ZM75.5661 51.8165C75.0981 52.313 75.4456 52.9329 76.475 53.4379C77.0444 53.7172 77.1589 53.7396 77.802 53.6977C79.2366 53.6044 80.3689 52.6055 79.8416 51.8985C79.5486 51.5056 79.1098 51.5038 78.6234 51.8933C78.3252 52.1321 78.1119 52.2174 77.7349 52.2486C77.2841 52.2858 77.1972 52.2579 76.781 51.9413C76.2423 51.5316 75.8708 51.4934 75.5661 51.8165ZM68.5475 56.2824C69.2969 56.5944 69.5152 56.9336 69.9805 58.5094C70.6904 60.9137 70.9497 62.7505 70.7927 64.263C70.6594 65.5466 70.3705 66.0965 69.6362 66.464C68.5943 66.9856 67.4393 66.6095 66.9103 65.5762C66.7278 65.2199 66.7161 65.0826 66.7765 64.0158C66.8552 62.6247 66.7141 61.6649 66.1673 59.8725C65.6927 58.3167 65.6752 57.5916 66.0981 56.9937C66.6433 56.2228 67.6808 55.9215 68.5475 56.2824ZM64.9689 62.3587L65.3905 62.6194L65.321 64.0369C65.2828 64.8165 65.2358 65.4714 65.2166 65.4924C65.1607 65.5533 63.1854 64.8401 62.0827 64.3608C60.2513 63.5648 59.8415 62.9066 60.2637 61.4389C60.4583 60.762 60.6214 59.5636 60.6214 58.8095V58.2159L62.5843 60.1569C63.6638 61.2245 64.737 62.2154 64.9689 62.3587ZM82.7019 63.4835L82.9631 64.1986L82.9949 67.5076L83.0267 70.8167L76.4042 70.7918L69.7816 70.767L69.7548 69.3962L69.7279 68.0255L70.1636 67.8334C70.7685 67.5667 71.5268 66.83 71.8097 66.234C72.0506 65.7267 72.1953 65.0255 72.3066 63.826L72.368 63.1637L72.6743 63.2275C74.244 63.5548 76.9596 63.6664 78.5567 63.4694C79.5735 63.3439 80.9353 63.0624 81.7046 62.8186C82.0244 62.7172 82.321 62.6644 82.3634 62.7013C82.4059 62.7382 82.5583 63.0901 82.7019 63.4835ZM85.9834 65.7133C87.858 67.3082 89.6365 69.3912 90.3931 70.8779C90.7551 71.5895 90.7892 71.7172 90.7482 72.2095C90.6935 72.8679 90.3196 73.4569 89.746 73.7885C89.4255 73.9739 89.2493 74.0056 88.6748 73.9814C88.0956 73.957 87.9308 73.9095 87.629 73.6801C87.4319 73.5303 87.1568 73.2265 87.0178 73.005C86.2704 71.8147 85.8172 71.2042 85.1796 70.5288L84.4733 69.7806L84.4459 67.1172L84.4187 64.4538L84.758 64.7066C84.9446 64.8456 85.496 65.2986 85.9834 65.7133ZM71.6234 83.0472C71.9966 83.1286 72.5979 83.2876 72.9595 83.4006C73.6094 83.6035 73.6165 83.6094 73.5585 83.8999C73.4377 84.506 73.0788 85.054 72.6157 85.3392C71.0154 86.3252 69.2212 84.9818 69.6023 83.0831L69.6652 82.7693L70.3051 82.8342C70.657 82.87 71.2502 82.9658 71.6234 83.0472ZM83.8856 83.6172C83.8856 84.7317 82.9707 85.683 81.8932 85.6888C81.3336 85.6918 80.5378 85.2714 80.2323 84.8114C79.9254 84.3493 79.8137 83.5971 80.039 83.511C80.4682 83.3468 81.7339 83.1959 82.7466 83.1882L83.8856 83.1795V83.6172Z" fill="white"/>
<defs>
<filter id="filter0_d_1951_26" x="-10" y="0" width="170" height="170" filterUnits="userSpaceOnUse" color-interpolation-filters="sRGB">
<feFlood flood-opacity="0" result="BackgroundImageFix"/>
<feColorMatrix in="SourceAlpha" type="matrix" values="0 0 0 0 0 0 0 0 0 0 0 0 0 0 0 0 0 0 127 0" result="hardAlpha"/>
<feOffset dy="24"/>
<feGaussianBlur stdDeviation="22.5"/>
<feComposite in2="hardAlpha" operator="out"/>
<feColorMatrix type="matrix" values="0 0 0 0 0.929412 0 0 0 0 0.109804 0 0 0 0 0.141176 0 0 0 0.3 0"/>
<feBlend mode="normal" in2="BackgroundImageFix" result="effect1_dropShadow_1951_26"/>
<feBlend mode="normal" in="SourceGraphic" in2="effect1_dropShadow_1951_26" result="shape"/>
</filter>
</defs>
</svg>
