<svg width="160" height="170" viewBox="0 0 160 170" fill="none" xmlns="http://www.w3.org/2000/svg">
<g filter="url(#filter0_d_1951_41)">
<path d="M35 53C35 37.9151 35 30.3726 39.6863 25.6863C44.3726 21 51.9151 21 67 21H83C98.0849 21 105.627 21 110.314 25.6863C115 30.3726 115 37.9151 115 53V69C115 84.0849 115 91.6274 110.314 96.3137C105.627 101 98.0849 101 83 101H67C51.9151 101 44.3726 101 39.6863 96.3137C35 91.6274 35 84.0849 35 69V53Z" fill="#ED1C24"/>
</g>
<path fill-rule="evenodd" clip-rule="evenodd" d="M76.2236 36.4391C77.735 36.8732 79.5786 37.9475 81.6643 39.6092C82.8549 40.5579 85.4966 43.2197 86.4588 44.4403C87.0764 45.2237 87.2741 45.4093 87.5791 45.4921C88.2331 45.6694 88.6888 46.0979 89.3146 47.124C90.0686 48.3601 91.0489 50.3397 91.1935 50.9178C91.296 51.3279 91.284 51.4113 91.0548 51.8832C90.8066 52.3942 90.8055 52.4057 90.9575 52.9842C91.0419 53.3058 91.1877 53.9433 91.2816 54.4008C91.476 55.3483 91.3908 55.3053 92.5457 55.0393C92.9464 54.947 93.6264 54.8668 94.0568 54.8612C94.7051 54.8527 94.9218 54.8921 95.3198 55.0908C95.9882 55.4244 96.2679 55.8679 96.2117 56.5049C96.1516 57.1868 93.5221 63.5415 93.0234 64.21C92.292 65.1905 91.1948 65.794 89.9282 65.9126L89.2587 65.9754L89.0904 66.4269C88.6268 67.6713 87.2793 69.9276 86.7487 70.348C86.6096 70.4582 86.3905 70.5483 86.2617 70.5483C85.9644 70.5483 85.5502 70.1372 85.5514 69.8432C85.5519 69.7197 85.8331 69.2233 86.1764 68.7401C87.3192 67.1314 88.1705 65.0914 88.5066 63.1552C88.6619 62.2615 88.7105 60.0787 88.5965 59.1227L88.5352 58.609H75.3492H62.1632L62.1019 59.1227C61.9919 60.0453 62.0365 62.1611 62.1855 63.0864C62.8144 66.9929 65.3878 70.6803 68.8398 72.6213C73.3321 75.1474 78.9727 74.8096 83.1702 71.7632C84.1227 71.0719 84.4418 71.0086 84.7975 71.4403C85.2337 71.9694 84.8157 72.5106 83.1923 73.5188L82.27 74.0916L82.2177 74.5953C82.1719 75.0344 82.1922 75.1178 82.3755 75.2458C83.7081 76.1763 85.0424 77.5897 85.9246 79.0056C86.8832 80.5439 87.6296 82.632 87.6244 83.76C87.6198 84.734 87.0466 85.6585 86.1668 86.1112L85.6962 86.3534L75.5501 86.3796C64.2956 86.4087 64.7836 86.4346 64.0096 85.7672C63.4537 85.2879 63.0772 84.4867 63.074 83.7759C63.0709 83.1012 63.3744 81.9136 63.8244 80.8386C64.7106 78.7222 66.1236 76.9005 67.9168 75.5627C68.2374 75.3235 68.4961 75.0662 68.4917 74.9911C68.4872 74.9159 68.4762 74.6851 68.4674 74.4781C68.4518 74.1167 68.4191 74.082 67.6457 73.6059C65.0564 72.0121 62.7217 69.2772 61.6907 66.6302L61.4355 65.975L60.7681 65.9124C59.5036 65.7941 58.406 65.1899 57.675 64.21C57.1763 63.5415 54.5468 57.1868 54.4866 56.5049C54.4305 55.8679 54.7102 55.4244 55.3786 55.0908C55.7766 54.8921 55.9933 54.8527 56.6415 54.8612C57.0719 54.8668 57.7519 54.947 58.1527 55.0393C59.3076 55.3053 59.2224 55.3483 59.4168 54.4008C59.5106 53.9433 59.6565 53.3058 59.7409 52.9842C59.8928 52.4057 59.8918 52.3942 59.6435 51.8832C59.4144 51.4115 59.4024 51.3278 59.5048 50.9183C59.6565 50.3116 60.4334 48.7219 61.2465 47.3546C61.9659 46.1448 62.4333 45.6781 63.1084 45.495C63.4264 45.4088 63.6145 45.2337 64.2418 44.4403C65.2157 43.2084 67.8542 40.5427 69.0341 39.5986C71.544 37.5903 74.0927 36.274 75.4118 36.3047C75.6178 36.3096 75.9831 36.37 76.2236 36.4391ZM73.7423 38.2916C71.3435 39.4363 68.2698 41.933 66.0701 44.5237L65.3283 45.3973H67.6078H69.8874L69.944 45.17C70.0482 44.7519 70.6522 44.0768 71.1833 43.7848C71.662 43.5216 71.8037 43.4942 72.8717 43.4586C73.9541 43.4225 74.0567 43.435 74.3048 43.6328C74.6077 43.8742 74.667 44.3482 74.4343 44.6691C74.315 44.8338 74.1394 44.8657 73.1152 44.908L71.9337 44.957L71.6012 45.3225L71.2687 45.6881V49.0217C71.2687 52.6811 71.2833 52.7836 71.8484 53.078C72.2716 53.2985 78.4268 53.2985 78.85 53.078C79.4407 52.7703 79.475 52.5849 79.5102 49.5076C79.5492 46.0799 79.5199 45.7871 79.0889 45.3134L78.7647 44.957L77.5832 44.908C76.559 44.8657 76.3834 44.8338 76.2641 44.6691C76.0314 44.3482 76.0907 43.8742 76.3936 43.6328C76.6416 43.435 76.7442 43.4225 77.8266 43.4586C78.8947 43.4942 79.0363 43.5216 79.5151 43.7848C80.0462 44.0768 80.6502 44.7519 80.7543 45.17L80.811 45.3973H83.0905H85.3701L84.6283 44.5237C82.1625 41.6196 78.6283 38.8681 76.175 37.9426C75.4571 37.6718 74.8626 37.757 73.7423 38.2916ZM77.7483 46.612L78.021 46.848L78.0532 48.6875C78.0898 50.7722 78.0381 51.3009 77.7711 51.5698C77.597 51.7452 77.4264 51.7585 75.3492 51.7585C73.2441 51.7585 73.1033 51.7471 72.9203 51.5628C72.7371 51.3782 72.726 51.2366 72.726 49.0744V46.7816L72.982 46.5789C73.2232 46.3877 73.3603 46.376 75.3569 46.376C77.4562 46.376 77.4782 46.3781 77.7483 46.612ZM80.9842 49.0672V51.2692H85.4023H89.8205L89.4778 50.5107C88.7682 48.9398 87.6841 47.1397 87.3479 46.9742C87.2347 46.9184 85.8661 46.8758 84.0689 46.872L80.9842 46.8653V49.0672ZM63.3794 46.968C63.0279 47.1296 61.9493 48.9 61.221 50.5107L60.8779 51.2692H65.3446H69.8113V49.1325C69.8113 47.9573 69.7822 46.9664 69.7465 46.9306C69.6361 46.8193 63.6258 46.8546 63.3794 46.968ZM74.1833 49.0672V50.2905H75.3978H76.6122V49.1325C76.6122 48.4955 76.5831 47.945 76.5474 47.9092C76.5118 47.8733 75.9653 47.8439 75.333 47.8439H74.1833V49.0672ZM80.6998 53.0969C80.5118 53.6206 79.7588 54.3362 79.1904 54.5313C78.4808 54.7748 72.2176 54.7748 71.508 54.5313C70.9396 54.3362 70.1865 53.6206 69.9985 53.0969L69.8694 52.7371H65.6117H61.354L61.2522 53.0063C61.0551 53.5273 60.7732 54.8489 60.7137 55.531C60.6667 56.0694 60.6886 56.2892 60.8135 56.5325C61.1479 57.1838 60.1259 57.141 75.3492 57.141C90.5725 57.141 89.5505 57.1838 89.8849 56.5325C90.0097 56.2892 90.0317 56.0694 89.9847 55.531C89.9252 54.8489 89.6433 53.5273 89.4461 53.0063L89.3444 52.7371H85.0867H80.8289L80.6998 53.0969ZM92.6428 56.5203C91.6095 56.787 91.347 56.9323 91.0685 57.3909C90.924 57.6291 90.6144 57.9596 90.3806 58.1256L89.9554 58.4275L90.0303 58.8852C90.227 60.0869 90.0875 62.9917 89.7742 64.2184C89.704 64.4932 89.7051 64.494 90.0803 64.4253C90.2874 64.3873 90.6602 64.2536 90.9087 64.1282C91.7586 63.6993 91.9665 63.3414 93.4311 59.7872C94.1731 57.9863 94.7803 56.4809 94.7803 56.4422C94.7803 56.2359 93.5735 56.28 92.6428 56.5203ZM55.9377 56.4036C55.9134 56.4282 56.5001 57.9291 57.2417 59.7391C58.3063 62.3378 58.6691 63.1218 58.9666 63.4664C59.3793 63.9447 60.0363 64.3227 60.6107 64.4125C60.9271 64.4618 60.9726 64.4463 60.9293 64.3041C60.63 63.3233 60.4748 60.0683 60.6703 58.8703C60.7473 58.3983 60.7469 58.3973 60.3725 58.1592C60.0472 57.9523 59.4885 57.3098 59.3974 57.0379C59.3535 56.9067 58.3108 56.5519 57.5212 56.3994C56.9135 56.2821 56.0562 56.2843 55.9377 56.4036ZM81.9115 61.7851C82.1278 62.0029 82.1501 62.1039 82.1501 62.866C82.1501 63.6282 82.1278 63.7292 81.9115 63.9469C81.6076 64.2532 81.2351 64.2532 80.9312 63.9469C80.715 63.7292 80.6927 63.6282 80.6927 62.866C80.6927 62.1039 80.715 62.0029 80.9312 61.7851C81.0624 61.653 81.2829 61.5449 81.4214 61.5449C81.5598 61.5449 81.7804 61.653 81.9115 61.7851ZM69.7671 61.7851C69.9834 62.0029 70.0056 62.1039 70.0056 62.866C70.0056 63.6282 69.9834 63.7292 69.7671 63.9469C69.4632 64.2532 69.0907 64.2532 68.7868 63.9469C68.5706 63.7292 68.5483 63.6282 68.5483 62.866C68.5483 62.1039 68.5706 62.0029 68.7868 61.7851C68.918 61.653 69.1385 61.5449 69.277 61.5449C69.4154 61.5449 69.636 61.653 69.7671 61.7851ZM77.4795 62.9771C77.9003 63.5159 77.5924 64.0698 76.5928 64.573C76.1078 64.8171 75.8787 64.8722 75.3492 64.8722C74.8197 64.8722 74.5906 64.8171 74.1056 64.573C73.106 64.0698 72.7981 63.5159 73.2189 62.9771C73.5035 62.6125 73.8828 62.6389 74.4328 63.0618C74.8004 63.3444 74.9607 63.4043 75.3492 63.4043C75.7377 63.4043 75.898 63.3444 76.2656 63.0618C76.8155 62.6389 77.1948 62.6125 77.4795 62.9771ZM77.6801 76.9584C76.9729 77.8196 76.3747 78.575 76.3508 78.6371C76.282 78.8152 77.5883 80.7262 77.7787 80.7262C77.9935 80.7262 78.8305 79.8322 79.2832 79.1193C79.4784 78.812 79.7707 78.2463 79.933 77.8623C80.2526 77.1058 80.6927 75.4797 80.6927 75.0554V74.7922L79.8294 75.0924L78.9661 75.3926L77.6801 76.9584ZM70.0056 75.0883C70.0056 75.4708 70.4756 77.1763 70.7786 77.8937C70.9336 78.2604 71.22 78.812 71.4152 79.1193C71.8679 79.8322 72.7049 80.7262 72.9196 80.7262C73.1103 80.7262 74.4165 78.8149 74.3472 78.6371C74.323 78.575 73.7261 77.8196 73.0209 76.9584L71.7385 75.3926L70.9935 75.1323C70.0575 74.8051 70.0056 74.8029 70.0056 75.0883ZM74.5912 76.5833C74.9662 77.0318 75.3072 77.3988 75.3492 77.3988C75.3912 77.3988 75.7322 77.0318 76.1072 76.5833L76.789 75.7677H75.3492H73.9093L74.5912 76.5833ZM81.5605 77.647C80.9959 79.2593 80.2967 80.4271 79.2907 81.4387C78.6988 82.0339 78.3434 82.2167 77.7781 82.2167C77.0003 82.2167 76.675 81.9652 75.8814 80.7506C75.6265 80.3604 75.3912 80.0411 75.3584 80.0411C75.3258 80.0411 75.1027 80.3352 74.8626 80.6948C74.0066 81.9768 73.7004 82.2167 72.9203 82.2167C72.3321 82.2167 72.0218 82.0455 71.3395 81.3446C70.3068 80.2838 69.6959 79.2537 69.1279 77.6152L68.8166 76.7171L68.549 76.909C68.0298 77.2814 66.8921 78.4891 66.4025 79.1875C65.7573 80.108 65.1396 81.3506 64.8105 82.3899C64.4926 83.3935 64.4611 83.9986 64.7069 84.3766C65.0889 84.9638 64.5259 84.9343 75.3492 84.9343C86.1725 84.9343 85.6095 84.9638 85.9915 84.3766C86.5766 83.4772 85.3907 80.4205 83.6616 78.3712C83.2601 77.8953 81.946 76.6909 81.89 76.7473C81.8778 76.7597 81.7296 77.1645 81.5605 77.647Z" fill="white"/>
<defs>
<filter id="filter0_d_1951_41" x="-10" y="0" width="170" height="170" filterUnits="userSpaceOnUse" color-interpolation-filters="sRGB">
<feFlood flood-opacity="0" result="BackgroundImageFix"/>
<feColorMatrix in="SourceAlpha" type="matrix" values="0 0 0 0 0 0 0 0 0 0 0 0 0 0 0 0 0 0 127 0" result="hardAlpha"/>
<feOffset dy="24"/>
<feGaussianBlur stdDeviation="22.5"/>
<feComposite in2="hardAlpha" operator="out"/>
<feColorMatrix type="matrix" values="0 0 0 0 0.929412 0 0 0 0 0.109804 0 0 0 0 0.141176 0 0 0 0.3 0"/>
<feBlend mode="normal" in2="BackgroundImageFix" result="effect1_dropShadow_1951_41"/>
<feBlend mode="normal" in="SourceGraphic" in2="effect1_dropShadow_1951_41" result="shape"/>
</filter>
</defs>
</svg>
