<svg width="160" height="170" viewBox="0 0 160 170" fill="none" xmlns="http://www.w3.org/2000/svg">
<g filter="url(#filter0_d_1951_16)">
<path d="M35 53C35 37.9151 35 30.3726 39.6863 25.6863C44.3726 21 51.9151 21 67 21H83C98.0849 21 105.627 21 110.314 25.6863C115 30.3726 115 37.9151 115 53V69C115 84.0849 115 91.6274 110.314 96.3137C105.627 101 98.0849 101 83 101H67C51.9151 101 44.3726 101 39.6863 96.3137C35 91.6274 35 84.0849 35 69V53Z" fill="#ED1C24"/>
</g>
<path fill-rule="evenodd" clip-rule="evenodd" d="M73.183 40.6649C72.9392 40.7866 72.7343 40.9807 72.5933 41.2234C72.4 41.5561 72.3772 41.6944 72.3772 42.5349V43.4746H70.7768C68.8057 43.4746 68.4187 43.5653 67.8219 44.1674C67.36 44.6332 67.1351 45.2342 67.1351 46.0023V46.471H62.5436C58.6607 46.471 57.8579 46.4926 57.3413 46.6111C56.2213 46.8681 55.1609 47.796 54.7162 48.9083L54.5103 49.4233L54.4867 59.8134C54.4609 71.1787 54.4446 70.7748 54.9651 71.6708C55.3236 72.2877 55.9788 72.89 56.6298 73.2011L57.2187 73.4825L65.9725 73.5062L74.7264 73.5298L75.1777 74.4004C75.8347 75.6677 76.5536 76.5772 78.2954 78.3444C79.1472 79.2087 80.0154 80.1142 80.2246 80.3566C80.9085 81.149 81.2888 82.1368 81.2888 83.121C81.2888 84.0684 81.783 84.9508 82.5432 85.3609C82.9051 85.5561 82.9065 85.5562 88.0162 85.5562C93.7008 85.5562 93.3563 85.5908 94.0305 84.9515C94.6666 84.3482 94.6895 84.2401 94.755 81.5463C94.7873 80.2134 94.8549 78.9641 94.9053 78.7703C94.9557 78.5764 95.1219 78.1401 95.2749 77.8008C95.6145 77.0474 95.8425 76.3972 96.0318 75.6417C96.161 75.1264 96.1783 73.8045 96.2044 62.4776C96.2303 51.2834 96.2183 49.8267 96.0969 49.3486C95.8542 48.3928 95.3049 47.633 94.4555 47.0783C93.5413 46.4814 93.4209 46.471 87.4093 46.471H82.0751V46.0023C82.0751 45.2301 81.8568 44.656 81.3804 44.1754C80.7705 43.5602 80.4102 43.4746 78.4334 43.4746H76.833V42.5631C76.833 41.4359 76.6528 41.0026 76.0502 40.6811C75.7136 40.5016 75.5477 40.4782 74.6132 40.4783C73.7132 40.4783 73.5013 40.5059 73.183 40.6649ZM75.3477 42.7255V43.4746H74.6051H73.8625V42.7255V41.9764H74.6051H75.3477V42.7255ZM80.3414 45.2117C80.4856 45.3572 80.5442 45.5414 80.5727 45.9387L80.6108 46.471H74.6156H68.6203L68.6216 46.0523C68.6231 45.5509 68.7655 45.2361 69.0589 45.0849C69.2283 44.9976 70.4614 44.978 74.712 44.9951L80.1482 45.0168L80.3414 45.2117ZM93.4547 48.2193C93.6828 48.3326 94.0081 48.5886 94.1775 48.7882C94.7615 49.4765 94.7436 49.1928 94.7436 57.777V65.526L94.5034 65.4503C94.3713 65.4087 93.9486 65.3746 93.5641 65.3746C93.0174 65.3746 92.7809 65.4171 92.4778 65.5699L92.0905 65.7651L91.7985 65.421C91.1127 64.6129 89.7905 64.3351 88.8176 64.7948L88.3662 65.0079L88.032 64.6428C87.8482 64.442 87.472 64.1734 87.1961 64.0459C86.7571 63.8432 86.6104 63.8191 86.0229 63.8527C85.6536 63.874 85.2834 63.9217 85.2002 63.9588C85.0581 64.0221 85.0475 63.7644 85.0255 59.6945L85.002 55.3627L85.25 55.125C85.7258 54.6691 85.7446 54.569 85.7443 52.4902C85.744 50.7013 85.7315 50.5483 85.5627 50.2691C85.1379 49.5661 84.7806 49.4661 82.7135 49.4712C80.6921 49.4762 80.3297 49.5979 79.9679 50.3927C79.8296 50.6964 79.8071 50.9861 79.8055 52.484C79.804 53.8476 79.8326 54.2959 79.9381 54.562C80.051 54.8466 80.0546 54.9427 79.9599 55.1586C79.8719 55.3597 79.8377 57.0755 79.8036 62.9952L79.7599 70.5743L79.5252 70.1777C79.3961 69.9596 79.2232 69.5035 79.141 69.1642C78.9763 68.4851 78.8337 68.1571 78.5238 67.7458C78.3398 67.5016 78.3183 67.381 78.3183 66.592C78.3183 65.4979 78.1327 65.059 77.5355 64.7404L77.155 64.5374H71.6663C65.4847 64.5374 65.68 64.5179 65.204 65.1807L64.9508 65.5333V67.534C64.9508 69.4691 64.9574 69.5445 65.1495 69.832C65.2587 69.9956 65.4808 70.2196 65.643 70.3298L65.9378 70.5302H69.9421H73.9465L73.9878 70.7285C74.1061 71.2963 74.2119 71.8704 74.2119 71.9446C74.2119 71.997 71.1069 72.0284 65.929 72.0284H57.6462L57.1846 71.7963C56.6523 71.5288 56.1871 70.9514 56.0444 70.381C55.982 70.1319 55.9519 66.7576 55.9519 60.0178C55.9519 49.3141 55.9418 49.5717 56.3843 48.9447C56.6651 48.5469 57.132 48.2182 57.5962 48.0916C57.9206 48.003 61.6211 47.9834 75.5225 47.9966L93.0399 48.0132L93.4547 48.2193ZM58.4579 49.595C58.0226 49.7517 57.7981 49.9607 57.6015 50.3927C57.4627 50.6975 57.441 50.9841 57.441 52.5078C57.441 54.4525 57.512 54.7888 58.0055 55.1803C58.4164 55.5064 58.8429 55.5629 60.6659 55.5327C62.3611 55.5046 62.3921 55.5007 62.7378 55.2697C63.3363 54.8699 63.3783 54.6878 63.3779 52.4945C63.3776 50.7012 63.3651 50.5483 63.1963 50.2691C62.9498 49.8612 62.7034 49.6731 62.2692 49.5616C61.7247 49.4215 58.8704 49.4466 58.4579 49.595ZM65.995 49.5843C65.5747 49.7244 65.3588 49.8948 65.1378 50.2605C64.9626 50.5505 64.9515 50.6845 64.9512 52.4945C64.9508 54.6878 64.9928 54.8699 65.5913 55.2697C65.937 55.5007 65.9679 55.5046 67.6631 55.5327C69.4862 55.5629 69.9126 55.5064 70.3236 55.1803C70.8171 54.7888 70.8881 54.4525 70.8881 52.5078C70.8881 50.9841 70.8663 50.6975 70.7276 50.3927C70.3619 49.5895 70.0085 49.4742 67.9214 49.478C66.9271 49.4798 66.1857 49.5207 65.995 49.5843ZM73.3955 49.5959C72.9788 49.7457 72.6536 50.0411 72.497 50.4119C72.3271 50.814 72.3266 54.198 72.4964 54.6078C72.6483 54.9746 73.0774 55.3396 73.4939 55.4562C73.9158 55.5744 76.7797 55.5744 77.2016 55.4562C77.6181 55.3396 78.0472 54.9746 78.1991 54.6078C78.3683 54.1993 78.3683 50.8163 78.1991 50.4078C78.0472 50.041 77.6181 49.676 77.2016 49.5594C76.7066 49.4207 73.8052 49.4486 73.3955 49.5959ZM88.3614 49.5843C87.9411 49.7244 87.7252 49.8948 87.5042 50.2605C87.3291 50.5505 87.3179 50.6845 87.3176 52.4945C87.3172 54.6878 87.3592 54.8699 87.9577 55.2697C88.3034 55.5007 88.3343 55.5046 90.0295 55.5327C91.8526 55.5629 92.279 55.5064 92.69 55.1803C93.1835 54.7888 93.2545 54.4525 93.2545 52.5078C93.2545 50.9841 93.2328 50.6975 93.094 50.3927C92.7284 49.5895 92.3749 49.4742 90.2878 49.478C89.2936 49.4798 88.5521 49.5207 88.3614 49.5843ZM61.8929 52.5099V54.0543L60.4295 54.0301L58.9661 54.006L58.942 52.5995C58.9286 51.8259 58.9372 51.1418 58.961 51.0792C58.994 50.9928 59.3498 50.9655 60.4486 50.9655H61.8929V52.5099ZM69.363 52.5078V54.006L67.8995 54.0301L66.4361 54.0543V52.5078V50.9613L67.8995 50.9855L69.363 51.0096V52.5078ZM76.833 52.5078V54.0501H75.3477H73.8625V52.5078V50.9655H75.3477H76.833V52.5078ZM84.2594 52.4601V53.9546L83.843 53.6936C83.1128 53.2357 82.1836 53.1506 81.4417 53.4736C81.3003 53.5351 81.2888 53.4482 81.2888 52.3116C81.2888 51.6359 81.315 51.0566 81.3471 51.0243C81.3791 50.992 82.0474 50.9655 82.8324 50.9655H84.2594V52.4601ZM91.7294 52.5078V54.006L90.266 54.0301L88.8025 54.0543V52.5078V50.9613L90.266 50.9855L91.7294 51.0096V52.5078ZM82.9434 54.9161C83.1071 55.0047 83.313 55.2123 83.4008 55.3775C83.5505 55.6589 83.5606 56.0227 83.5632 61.1871C83.5661 67.0054 83.5559 66.8564 83.9696 67.0788C84.4609 67.3427 84.9297 67.0238 85.0525 66.342C85.1607 65.7419 85.5871 65.3306 86.1012 65.3306C86.86 65.3306 87.219 65.7768 87.2918 66.8103C87.3495 67.6308 87.5215 67.8879 88.0096 67.8835C88.1814 67.882 88.3893 67.8292 88.4715 67.7662C88.651 67.6286 88.8025 67.2533 88.8025 66.9464C88.8025 66.6387 89.3026 66.1528 89.6958 66.0784C90.1049 66.001 90.5767 66.2244 90.8106 66.6062C90.9446 66.8248 90.9868 67.0458 90.9868 67.529C90.9868 68.1136 91.0071 68.1848 91.2421 68.4219C91.568 68.7506 91.957 68.7664 92.2575 68.4631C92.3755 68.3442 92.472 68.1446 92.472 68.0197C92.472 66.7903 94.0867 66.3843 94.6038 67.4837C94.7423 67.778 94.753 68.1231 94.7227 71.3497C94.6854 75.3428 94.6685 75.469 93.9573 77.0622C93.3884 78.3368 93.3356 78.6642 93.2717 81.3117L93.2147 83.6769L92.9695 83.8895L92.7244 84.1021H88.0162H83.3081L83.0732 83.8982C82.8595 83.713 82.8317 83.6151 82.7657 82.8187C82.604 80.8669 82.1862 80.1677 79.6277 77.5662C78.6105 76.532 77.6025 75.4505 77.3876 75.1631C76.242 73.6302 75.5578 71.8484 75.382 69.9404C75.3147 69.2103 75.4797 68.757 75.9086 68.4932C76.3963 68.1932 77.2185 68.3413 77.4461 68.7703C77.4977 68.8677 77.6158 69.2467 77.7086 69.6122C77.9499 70.5642 78.3368 71.2368 79.0108 71.876C79.9594 72.7758 80.7009 73.0162 81.0951 72.552C81.234 72.3885 81.2484 71.7474 81.2888 63.9682C81.3321 55.6385 81.3342 55.5588 81.5134 55.3123C81.7137 55.0371 82.197 54.7554 82.4697 54.7553C82.5665 54.7552 82.7797 54.8275 82.9434 54.9161ZM58.1798 57.2577C57.5323 57.6554 57.4847 57.8232 57.4519 59.8225C57.4205 61.7359 57.4686 62.0608 57.8504 62.5185C58.2477 62.9948 58.4677 63.0392 60.43 63.0392C62.0976 63.0392 62.229 63.0272 62.5945 62.8409C62.8086 62.7318 63.0724 62.5079 63.1809 62.3432C63.3712 62.0544 63.3782 61.9728 63.3782 60.0428C63.3782 58.1129 63.3712 58.0316 63.1816 57.7506C62.7432 57.1007 62.7136 57.0932 60.5107 57.0667C58.5452 57.0432 58.5264 57.0448 58.1798 57.2577ZM65.8246 57.1454C65.7045 57.1938 65.514 57.3202 65.4012 57.4263C64.9743 57.8283 64.9508 57.9663 64.9508 60.0695C64.9508 61.9718 64.958 62.0546 65.1481 62.3432C65.2566 62.5079 65.5205 62.7318 65.7345 62.8409C66.1 63.0272 66.2314 63.0392 67.899 63.0392C69.8613 63.0392 70.0813 62.9948 70.4787 62.5185C70.8605 62.0608 70.9085 61.7359 70.8772 59.8225C70.8443 57.8206 70.785 57.6185 70.1198 57.2414C69.7939 57.0566 69.6792 57.0467 67.9095 57.052C66.8829 57.0551 65.9447 57.0971 65.8246 57.1454ZM73.3383 57.1077C73.0262 57.2315 72.7103 57.5263 72.5499 57.8435C72.394 58.152 72.3772 58.3662 72.3772 60.0536C72.3772 61.8848 72.3816 61.9296 72.5944 62.2959C72.7392 62.5452 72.9377 62.7313 73.1899 62.8545C73.5362 63.0236 73.7194 63.0392 75.3615 63.0392C77.0652 63.0392 77.174 63.0291 77.5355 62.8363C77.7955 62.6976 77.9796 62.5119 78.1171 62.2496C78.3085 61.8845 78.3183 61.7766 78.3183 60.0255C78.3183 57.9641 78.259 57.7079 77.6869 57.2962C77.4096 57.0968 77.3411 57.09 75.4351 57.0731C74.3539 57.0635 73.4103 57.0791 73.3383 57.1077ZM88.191 57.1454C88.0709 57.1938 87.8805 57.3202 87.7677 57.4263C87.3408 57.8283 87.3173 57.9663 87.3173 60.0695C87.3173 61.9718 87.3244 62.0546 87.5145 62.3432C87.6231 62.5079 87.8869 62.7318 88.101 62.8409C88.4664 63.0272 88.5978 63.0392 90.2654 63.0392C92.2277 63.0392 92.4477 62.9948 92.8451 62.5185C93.2269 62.0608 93.275 61.7359 93.2436 59.8225C93.2107 57.8206 93.1514 57.6185 92.4863 57.2414C92.1603 57.0566 92.0457 57.0467 90.2759 57.052C89.2493 57.0551 88.3111 57.0971 88.191 57.1454ZM61.8929 60.0428V61.541H60.4077H58.9224V60.0428V58.5446H60.4077H61.8929V60.0428ZM69.4067 60.0428V61.541H67.9214H66.4361V60.0428V58.5446H67.9214H69.4067V60.0428ZM76.833 60.0428V61.541H75.3477H73.8625V60.0428V58.5446H75.3477H76.833V60.0428ZM91.7731 60.0428V61.541H90.2878H88.8025V60.0428V58.5446H90.2878H91.7731V60.0428ZM58.3501 64.6614C58.0055 64.8128 57.6422 65.2521 57.5198 65.665C57.4584 65.8724 57.4335 66.635 57.4519 67.7541C57.4847 69.7561 57.5441 69.9582 58.2092 70.3353C58.535 70.52 58.6536 70.5302 60.4721 70.5302C62.3237 70.5302 62.4017 70.5231 62.6861 70.3298C62.8482 70.2196 63.0722 69.9927 63.1839 69.8255C63.3839 69.5262 63.3865 69.4912 63.3607 67.4922C63.3351 65.5115 63.3295 65.4556 63.1248 65.166C62.7323 64.611 62.4275 64.5411 60.4077 64.5428C59.1133 64.5439 58.5427 64.5768 58.3501 64.6614ZM61.8929 67.5338V69.032H60.4077H58.9224V67.5338V66.0356H60.4077H61.8929V67.5338ZM76.833 66.4322V66.8288L76.4617 66.8293C75.3647 66.8307 74.2832 67.638 74.013 68.6571L73.9136 69.032H70.1749H66.4361V67.5338V66.0356H71.6346H76.833V66.4322Z" fill="white"/>
<defs>
<filter id="filter0_d_1951_16" x="-10" y="0" width="170" height="170" filterUnits="userSpaceOnUse" color-interpolation-filters="sRGB">
<feFlood flood-opacity="0" result="BackgroundImageFix"/>
<feColorMatrix in="SourceAlpha" type="matrix" values="0 0 0 0 0 0 0 0 0 0 0 0 0 0 0 0 0 0 127 0" result="hardAlpha"/>
<feOffset dy="24"/>
<feGaussianBlur stdDeviation="22.5"/>
<feComposite in2="hardAlpha" operator="out"/>
<feColorMatrix type="matrix" values="0 0 0 0 0.929412 0 0 0 0 0.109804 0 0 0 0 0.141176 0 0 0 0.3 0"/>
<feBlend mode="normal" in2="BackgroundImageFix" result="effect1_dropShadow_1951_16"/>
<feBlend mode="normal" in="SourceGraphic" in2="effect1_dropShadow_1951_16" result="shape"/>
</filter>
</defs>
</svg>
