<svg width="50" height="50" viewBox="0 0 50 50" fill="none" xmlns="http://www.w3.org/2000/svg">
<rect opacity="0.2" x="50" y="50" width="50" height="50" rx="10" transform="rotate(-180 50 50)" fill="black"/>
<path fill-rule="evenodd" clip-rule="evenodd" d="M31.0269 36.7946C31.7553 36.4207 32.0884 35.619 31.8534 34.8053C31.7683 34.5103 31.63 34.298 31.3273 33.9977C31.1014 33.7736 28.7401 31.6732 26.0798 29.33C23.4196 26.9868 21.2449 25.0451 21.2472 25.015C21.2494 24.9849 23.4028 23.0693 26.0324 20.7581C32.0679 15.4533 31.7779 15.7264 31.9271 15.2095C32.3451 13.761 30.8843 12.495 29.6103 13.2016C29.1524 13.4556 17.5753 23.69 17.3095 24.0758C16.8178 24.7893 16.9175 25.6409 17.5691 26.2939C17.7735 26.4988 20.5336 28.9502 23.7026 31.7415C28.0251 35.5487 29.5413 36.8402 29.7722 36.9114C30.2442 37.0572 30.5755 37.0263 31.0269 36.7946Z" fill="white"/>
</svg>
