<svg width="50" height="50" viewBox="0 0 50 50" fill="none" xmlns="http://www.w3.org/2000/svg">
<path fill-rule="evenodd" clip-rule="evenodd" d="M49.7521 28.51C49.5301 28.3915 49.1278 28.1911 48.5235 27.939C48.832 25.4831 48.7525 22.994 48.2881 20.5627C45.8425 7.72017 33.4057 -0.738021 20.565 1.70794C8.53055 4.0003 0.347331 15.0681 1.379 27.0207L0.103604 27.2561C-1.05326 14.6039 7.59236 2.8633 20.3229 0.444055C33.8631 -2.13547 46.9776 6.78853 49.5568 20.3273C50.0727 23.0254 50.1387 25.7903 49.7521 28.51ZM3.65267 27.4916C4.2887 27.3246 4.92973 27.4682 5.24357 27.7103C5.27696 28.6519 5.30367 29.5735 5.3237 30.4701C5.14856 30.3177 4.94387 30.2029 4.72243 30.1331C4.50098 30.0633 4.26752 30.0399 4.03662 30.0644C3.24201 30.1679 2.96656 30.9142 3.07507 31.6405C3.19693 32.4519 3.53915 32.8393 4.69769 33.836C5.94415 34.9007 6.74105 36.398 6.92796 38.0267C7.21008 40.3975 6.12166 41.2841 4.31207 40.7198C3.63244 40.498 2.99928 40.1534 2.44405 39.703C2.4357 39.1337 2.42569 38.556 2.41567 37.9683C2.90033 38.3664 3.45441 38.6715 4.04998 38.8682C4.90469 39.1203 5.26194 38.6845 5.15343 37.8798C5.02989 36.9749 4.54077 36.4072 3.63431 35.5774C2.15859 34.2835 1.46414 33.0413 1.28718 31.9611C0.978351 30.0677 1.70118 28.0843 3.65267 27.4916ZM29.436 48.2897C33.6015 47.501 37.4771 45.6028 40.6541 42.7951C41.4604 42.6515 42.235 42.5079 42.9662 42.3693C40.6575 44.7618 37.8944 46.6692 34.8389 47.9794C31.7834 49.2896 28.497 49.9764 25.1726 49.9994C21.8482 50.0224 18.5527 49.3812 15.4793 48.1134C12.406 46.8456 9.61673 44.9768 7.27519 42.6164C7.99134 42.73 8.7509 42.8468 9.54886 42.9654C12.249 45.2931 15.4399 46.981 18.8834 47.9029C22.327 48.8248 25.9342 48.9571 29.436 48.2897ZM37.489 40.9686C38.0315 40.8533 38.4672 40.3475 38.7377 38.1302C39.1467 34.7777 39.6458 30.6488 40.0231 26.4915C40.6841 26.6028 41.3441 26.7269 42.0029 26.8638C41.6056 30.5686 41.1215 34.2417 40.7058 37.3489C40.205 41.022 39.1016 42.6031 37.2853 42.9687C35.3171 43.3026 34.6661 42.0755 35.0617 38.0468C35.3956 34.559 35.8029 30.2314 36.0633 25.8821C36.7311 25.97 37.3988 26.0652 38.0666 26.1676C37.7327 30.5469 37.2636 34.8979 36.883 38.3723C36.6359 40.6062 36.9949 41.0337 37.489 40.9686ZM32.5827 40.4159C33.1703 40.3558 33.5843 41.0554 33.4925 42.0855C33.4091 43.0739 32.95 43.6282 32.3073 43.705C31.7614 43.7601 31.3057 43.311 31.3808 42.3126C31.4476 41.3492 32.0118 40.4643 32.5827 40.4159ZM28.4561 25.2042C28.6747 27.1009 28.86 28.9875 29.0236 30.7974C29.1672 32.2165 29.2874 33.8126 29.3575 35.3053H29.3859C29.5745 33.8377 29.8082 32.2816 30.0536 30.7172C30.3241 28.9591 30.5862 27.1476 30.8282 25.3444C31.5249 25.3945 32.221 25.453 32.9166 25.5198C32.0035 29.9726 30.9735 34.5573 30.0219 38.2621C29.885 40.5077 29.7615 42.4244 29.6981 43.8186C29.1082 43.8608 28.5195 43.8948 27.9319 43.9204C27.977 42.5547 28.0721 40.6714 28.1773 38.4591C27.6448 34.7526 27.0955 29.9709 26.3126 25.1324C27.0237 25.1469 27.7382 25.1708 28.4561 25.2042ZM24.8352 27.1576C25.7233 28.9558 26.1473 32.1013 26.0355 36.0816C25.9236 39.9668 25.3677 42.012 24.5631 42.962C23.9371 43.7384 23.0607 44.0389 21.822 43.9805C21.3322 43.9539 20.8459 43.8813 20.3697 43.7635C20.2812 40.3391 20.3379 33.27 19.9323 25.5849C20.5425 25.2358 21.2325 25.05 21.9355 25.0456C23.2343 25.0022 24.1541 25.7151 24.8352 27.1576ZM22.4146 28.7454C22.2768 28.7297 22.1384 28.7686 22.029 28.8539C22.1559 34.175 22.1025 38.9133 22.1041 42.0438C22.2033 42.0811 22.3087 42.0993 22.4146 42.0972C23.2627 42.0571 24.0306 41.1372 24.109 35.9197C24.1658 31.6822 23.5915 28.6903 22.413 28.7387L22.4146 28.7454ZM16.2213 25.488C16.879 25.4257 17.5384 25.37 18.1995 25.3211C18.5067 29.9776 18.6385 34.5924 18.7253 38.2454C18.8205 42.5497 17.9925 43.67 16.2797 43.4813C14.3967 43.1858 13.5553 41.7065 13.3033 37.7863C13.0762 34.3803 12.7807 30.1863 12.3384 25.9472C12.9872 25.8559 13.6377 25.7724 14.2898 25.6967C14.7155 30.3349 14.9576 34.9246 15.1512 38.5192C15.2698 40.8216 15.6904 41.3743 16.1645 41.4594C16.677 41.4978 17.0243 41.1155 16.9341 38.6929C16.7906 35.0164 16.6002 30.2781 16.2213 25.488ZM9.39862 42.0521C9.06474 39.0852 8.66577 34.7059 8.10653 29.9959C7.53449 30.0405 6.96413 30.0878 6.39543 30.1379C6.26522 29.1361 6.12667 28.1126 5.98143 27.0875C7.76208 26.6968 9.55887 26.3629 11.3718 26.0857C11.5087 27.3246 11.6339 28.5434 11.7441 29.7455C11.162 29.78 10.5811 29.8173 10.0013 29.8574C10.5304 34.8662 10.8793 39.4926 11.1698 42.4578C10.5811 42.3309 9.99068 42.1957 9.39862 42.0521ZM43.2867 21.5161C43.5911 23.1108 43.6848 24.7387 43.5655 26.3579L43.1247 26.2527C43.3089 23.5865 42.9037 20.9125 41.9378 18.4206C42.058 18.7429 42.1732 19.0701 42.2717 19.4007C42.134 19.4367 41.9894 19.438 41.8511 19.4045C41.7127 19.371 41.5848 19.3037 41.4788 19.2087C41.3435 19.1018 41.2601 18.5158 41.013 18.7078C40.9162 18.7679 40.9245 18.7429 40.8728 18.8597C40.8611 18.9081 40.8361 18.8798 40.8728 18.9098C40.9329 19.1987 41.1566 19.5042 41.4788 19.5175C41.4908 19.6352 41.4908 19.7538 41.4788 19.8715H41.5722C41.861 20.0835 42.1398 19.7613 42.3268 19.5877C42.4526 20.0084 42.5638 20.4347 42.6607 20.8666C42.6512 20.9217 42.6461 20.9776 42.6456 21.0335H42.5054C42.3585 21.289 42.2166 21.2389 42.1715 21.4893L41.659 21.5394C41.6424 21.6446 41.6474 21.6363 41.6123 21.6914C41.4454 21.8583 40.2935 22.239 40.0281 22.249V22.4009C39.9196 22.411 39.8962 22.411 39.8411 22.451C40.1249 22.4861 40.0715 22.618 40.3536 22.6531C40.5205 22.5045 41.0063 22.4444 41.4253 22.451C41.4253 23.3626 40.9629 23.6682 40.4938 24.0722C40.3703 24.1791 40.3269 24.3978 40.2151 24.528C39.9335 24.8423 39.6715 25.1735 39.4304 25.5198C37.7077 25.2343 35.7579 24.9821 33.5426 24.7951C33.6381 24.549 33.659 24.2801 33.6027 24.0221C33.5273 23.9901 33.4625 23.9374 33.4157 23.8702L32.8565 23.972C32.7747 23.76 32.7296 23.5647 32.4842 23.5162C32.1387 23.3576 31.6713 23.76 31.4125 23.8702C30.8449 23.7032 30.7448 23.8886 30.1555 23.9203C29.9301 23.7132 29.4694 23.5313 29.3208 23.2608C29.254 23.1422 29.2974 23.0137 29.2273 22.9068C29.1004 22.7115 28.9185 22.6998 28.855 22.406H28.7148C28.644 22.3102 28.5814 22.2085 28.5278 22.1021C28.653 21.9067 28.5278 21.9618 28.4811 21.6964C28.6412 21.5268 28.7817 21.3397 28.9001 21.1387C28.7934 20.8954 28.7155 20.6405 28.6681 20.3791C28.8233 20.2238 28.82 20.0151 28.9469 19.8214C29.0186 19.7112 29.1822 19.7096 29.2807 19.6194C29.3792 19.5292 29.3158 19.3339 29.3275 19.3155L30.072 18.8146C29.8951 18.282 30.2707 18.2754 30.5845 18.0032C30.6721 17.8741 30.7496 17.7385 30.8165 17.5975C30.6813 17.4806 30.7097 17.3921 30.4827 17.3437C30.3875 17.4038 30.2907 17.3738 30.1488 17.3938C30.2256 17.1334 30.0253 17.0599 30.0553 16.8929C30.3241 16.6575 30.2222 16.3102 30.1021 16.0815C30.6029 15.8762 31.2005 16.0498 31.6395 16.0815C31.6846 15.9463 31.6996 15.9947 31.733 15.8277C31.5394 15.6424 31.6813 15.4938 31.6395 15.422C31.5511 15.2684 31.4509 15.3803 31.4075 15.1182L30.9885 15.0681C30.9584 14.9796 30.9801 15.0197 30.9417 14.9662C30.9835 14.9111 30.9417 14.9662 30.9885 14.9161C31.1454 14.8143 31.4108 14.8861 31.5477 14.866C31.5477 14.6991 31.4809 14.7709 31.6412 14.7141C31.8081 14.8076 31.8799 14.6473 32.107 14.6123V14.3986C32.5944 14.3852 32.5159 14.1949 32.7597 13.9928C32.7847 13.9728 33.1319 13.8459 33.2722 13.7908C33.3345 13.8621 33.4154 13.9147 33.5059 13.9428V13.7391C33.4157 13.6456 33.3723 13.5871 33.4124 13.4853C33.5085 13.3327 33.6609 13.2242 33.8364 13.1831C33.8781 13.2382 33.8364 13.1831 33.8832 13.2332C33.8715 13.4001 33.8832 13.3117 33.9299 13.487C33.778 13.5287 33.8581 13.4619 33.7897 13.5888C33.9232 13.6456 33.8748 13.5972 33.9299 13.7407H33.8364C33.7955 13.6994 33.7481 13.665 33.6962 13.6389V13.7407L33.8364 13.8426C33.9266 13.9177 33.9783 13.9044 34.2087 13.8927C34.2705 13.7257 34.2738 13.6539 34.4407 13.5888C34.4726 13.6808 34.52 13.7666 34.581 13.8426C34.7078 13.7391 35.05 13.492 35.3255 13.5888C35.3822 13.6088 35.3989 13.7424 35.5592 13.6906C35.616 13.6723 35.6811 13.5972 35.6059 13.5387C35.7078 13.4986 35.8163 13.5187 35.8847 13.4886C35.7912 13.1881 35.9215 13.1447 36.0717 12.9877C36.2186 13.0696 36.252 13.1547 36.444 13.1898C36.4425 13.0866 36.4583 12.9839 36.4907 12.8859C36.3071 12.8492 36.3405 12.8859 36.3037 12.6839H36.3972C36.7611 12.4418 37.1418 12.7941 37.5157 12.5319C36.9014 12.4468 36.3789 12.5019 35.9315 12.4301C35.9585 12.2574 35.9255 12.0806 35.838 11.9292C36.1201 11.8174 36.3388 11.5836 36.6293 11.5235V11.3716C36.3958 11.3378 36.1577 11.3548 35.9315 11.4217C35.8897 11.5435 35.8964 11.6103 35.7912 11.6754C35.6004 11.7881 35.4005 11.8847 35.1936 11.9643L35.1469 12.3182C35.2081 12.3395 35.2643 12.3729 35.3123 12.4166C35.3602 12.4602 35.3988 12.5131 35.4256 12.572C35.3155 12.6271 35.3422 12.6204 35.2854 12.724C35.0934 12.724 34.995 12.7674 35.0066 13.1297C35.0434 13.1814 35.0233 13.143 35.0534 13.2315C34.7896 13.2682 34.4374 13.4769 34.3556 13.4335C34.3556 13.4335 33.9115 12.7657 33.8898 12.724C33.4742 13.0579 33.2221 13.103 32.8181 12.774C32.8932 12.5286 32.8047 12.2631 32.8181 12.0645C32.9635 12.0312 33.1042 11.9802 33.2371 11.9125C33.3206 11.8457 33.2154 11.829 33.4241 11.8107C33.5891 11.7148 33.7603 11.6301 33.9366 11.5569C33.9594 11.6122 33.991 11.6635 34.0301 11.7088C34.0353 11.6395 34.0511 11.5714 34.0768 11.5068L34.217 11.5569C34.217 11.4384 34.6043 11.1428 34.7763 11.056V11.0059C34.6678 10.9959 34.6444 10.9959 34.5893 10.9558H34.6828C34.7946 10.7505 34.9449 10.8924 35.1485 10.9058C35.1085 10.829 35.0167 10.869 35.1018 10.8039C35.3322 10.5819 35.6527 10.5852 36.0116 10.5618C34.5747 9.4651 32.9832 8.58738 31.289 7.95725H31.2355C30.7665 8.01568 30.4309 7.66173 30.0253 7.8554C29.8483 7.94055 29.0453 7.66507 28.9535 7.75356C28.9035 7.71182 28.8818 7.63668 28.7666 7.60162C28.5596 7.53818 28.2507 7.65004 28.1138 7.65171L27.9269 7.54987C27.5596 7.48475 26.7583 7.62166 26.3894 7.65171C25.9587 7.68677 25.5547 7.49978 24.9921 7.65171C24.4796 7.79029 23.9805 7.60997 23.6884 7.80365C24.9137 7.95057 25.9754 7.92386 27.361 7.90549V7.95725H27.3259C27.2358 7.99732 27.4194 8.00734 27.4194 8.00734C27.5863 7.91384 27.7533 7.99899 27.8851 8.05742C27.8501 8.10083 27.8267 8.11419 27.7917 8.15927H28.0704C28.2982 8.09239 28.5404 8.09239 28.7682 8.15927V8.20936C28.6714 8.22772 28.6781 8.22105 28.628 8.25945C29.0654 8.24943 29.3041 8.09249 29.5128 8.25945C29.3291 8.29117 28.5379 8.62509 28.3943 8.82544H28.3476V8.87553C28.4888 8.87443 28.6296 8.89126 28.7666 8.92561C28.7248 8.98071 28.7666 8.92562 28.7198 8.9757V9.02579C28.6605 8.99934 28.5974 8.98244 28.5329 8.9757V9.12597C28.4309 9.12652 28.3324 9.16253 28.2541 9.22781C28.3802 9.22128 28.5064 9.23826 28.6263 9.2779C28.4811 9.74873 28.4043 9.58845 28.1606 9.77878C28.2374 9.85391 28.2073 9.81551 28.2073 9.88063C28.0821 9.97078 27.9402 9.90567 27.7883 9.88063V9.93071H27.8818C27.9285 9.96578 28.0688 9.99583 28.1155 10.0326C28.0621 10.0543 27.8968 10.091 28.022 10.1344C28.08 10.1757 28.1428 10.2099 28.209 10.2362V10.3381H28.022C27.9766 10.27 27.9138 10.2154 27.8401 10.1798C27.7664 10.1443 27.6845 10.1292 27.603 10.1361C27.5847 10.268 27.6381 10.2029 27.5095 10.2379V10.3899L27.8818 10.5418C27.8351 10.5819 27.8684 10.5602 27.7883 10.5919C27.5446 10.7588 26.9753 10.7889 26.7633 10.8457C26.6198 10.8841 26.4695 10.7605 26.3911 10.7956C26.1106 10.9191 25.8235 11.2363 25.4596 11.3532C25.1257 11.4584 24.8953 11.3749 24.6683 11.5552C24.8603 11.804 24.4513 11.8758 24.3344 12.163C24.281 12.3032 24.4646 12.4468 24.3344 12.5687H24.0005C23.8336 12.6338 23.8653 12.5069 23.6667 12.4167C23.531 12.3695 23.3833 12.3695 23.2477 12.4167L23.2009 12.2648L23.0607 12.3149C22.7468 12.1079 22.655 11.804 22.408 11.6571C22.4647 11.4016 22.2778 11.3232 22.3145 11.0994C22.1475 11.0777 22.1976 11.1228 22.1275 10.9976C22.1642 10.9458 22.1442 10.9842 22.1742 10.8957C22.2911 10.864 22.5799 10.7505 22.64 10.642C22.6517 10.5935 22.6767 10.6219 22.64 10.5919C22.5665 10.5 22.5983 10.5218 22.453 10.49C22.3462 10.7288 22.0374 10.6102 21.9873 10.5401H21.9405L21.9873 10.3882C22.0841 10.3515 22.1008 10.283 22.1742 10.1344H22.0808C21.9773 10.2045 21.9289 10.1628 21.802 10.1344C21.8287 9.92904 21.7569 9.94407 21.8487 9.88063L21.8955 9.77878H21.7552C21.6818 9.84223 21.7319 9.8105 21.6618 9.77878C21.4568 9.68776 21.2914 9.52595 21.196 9.32298C20.9423 9.3714 20.9155 9.27957 20.7302 9.22113L20.171 9.32298L19.8922 9.22113C19.5767 9.16771 19.5066 9.34635 19.2395 9.0692C19.1672 9.11366 19.0891 9.14793 19.0075 9.17105L18.9607 9.01911C19.0692 9.0091 19.0926 9.0091 19.1477 8.96902C18.8572 8.94231 18.7754 8.78537 18.5885 8.71525C18.4332 8.65848 18.318 8.79873 18.2162 8.81709L17.9374 8.767L17.8439 8.91894C17.5257 9.12235 17.1479 9.21181 16.7722 9.17272V9.27456C16.9181 9.27343 17.0621 9.30842 17.1912 9.37641V9.47825C16.6463 9.46966 16.1015 9.50372 15.5619 9.5801C15.4973 9.59163 15.4312 9.59163 15.3666 9.5801C15.2497 9.65356 15.1379 9.73036 15.0227 9.80549C15.2347 9.72034 15.8724 9.55005 16.0744 9.63853C16.1445 9.66859 16.1746 9.78379 16.3532 9.74038C17.4449 9.4699 17.7721 10.0359 18.8222 10.0943C18.8322 10.0242 18.7838 10.1144 18.7754 10.0442C18.6853 10.0042 18.8689 9.99416 18.8689 9.99416C18.9814 10.0013 19.0931 10.0181 19.2028 10.0442C19.1894 9.91903 19.1727 10.0192 19.2028 9.89231C19.5717 10.1094 20.1226 9.72535 20.5533 10.0943C20.7085 10.3815 20.5533 10.4283 20.8872 10.7021C20.8137 10.9442 20.8688 11.036 20.8404 11.3616C20.6919 11.3766 20.6535 11.3716 20.6067 11.4116C20.5081 11.4898 20.415 11.5746 20.3279 11.6654C20.1545 11.6238 19.9835 11.5731 19.8154 11.5135V11.5636C19.8944 11.6134 19.9589 11.683 20.0024 11.7656C19.8618 11.848 19.6988 11.8837 19.5367 11.8674C19.4897 11.8161 19.432 11.7758 19.3676 11.7496C19.3032 11.7233 19.2338 11.7117 19.1644 11.7155V11.7656H19.2579C19.3931 11.9326 19.5667 11.8674 19.6301 12.1196H19.5834C19.4298 11.9526 19.0542 11.9626 18.7921 12.0177C18.7304 11.8841 18.6803 11.9593 18.6052 11.8658C18.2713 11.445 18.0142 11.7222 17.3949 11.612V11.5619C17.4336 11.5358 17.4656 11.5009 17.4883 11.4601H17.1161C16.9027 11.4758 16.6885 11.4769 16.475 11.4634V11.5135H16.5685C16.698 11.5919 16.8344 11.6584 16.9759 11.7122V11.814H16.8824C16.8139 11.8341 16.4533 11.6671 16.4166 11.7122C16.2664 11.8107 16.2296 11.8892 15.9976 11.9142C15.9809 11.809 15.9859 11.8174 15.9509 11.7623C15.8653 11.8073 15.7679 11.8248 15.6721 11.8124V11.7623C15.8524 11.6571 15.8707 11.5102 15.9509 11.3065H15.8574C15.5118 11.9225 14.2815 11.774 14.2732 12.7256C14.3216 12.7457 14.4802 12.734 14.5519 12.7757C14.7189 12.8675 14.6454 13.0595 14.8858 13.1297C15.0352 13.0694 15.2022 13.0694 15.3516 13.1297C15.5736 13.2065 15.809 13.4102 16.0494 13.4836C16.3832 13.5855 16.4934 13.4836 16.7021 13.5855C16.6703 13.7183 16.6547 13.8546 16.6553 13.9912C16.7922 13.9478 16.849 13.891 16.9341 14.0413C16.8256 14.0513 16.8022 14.0513 16.7471 14.0914H16.7939C16.88 14.2047 16.9955 14.2925 17.1278 14.3451C17.2213 14.2116 17.273 14.2533 17.3147 14.0413C17.2353 13.8969 17.1726 13.744 17.1278 13.5855C17.3899 13.5855 17.6019 13.4853 17.687 13.2816C17.7237 13.2215 17.7237 13.1964 17.7337 13.0796C17.5939 12.9993 17.4681 12.8967 17.3615 12.7757C17.4295 12.7139 17.492 12.6463 17.5484 12.5737C17.5148 12.4033 17.4679 12.2359 17.4082 12.0728C17.4604 12.0471 17.5079 12.0127 17.5484 11.971L18.1077 12.0728C18.1694 12.0728 18.2245 11.986 18.3397 12.0227C18.7387 12.1446 18.5668 12.3182 19.0392 12.2765C18.9977 12.3908 18.9977 12.5161 19.0392 12.6305C19.1385 12.704 19.2523 12.7558 19.3731 12.7824C19.6335 12.8174 19.7169 12.4802 19.979 12.3767C19.9874 12.4034 20.752 13.4269 20.7703 13.4402C21.0007 13.6072 21.1977 13.3868 21.3295 13.6422H21.2828C21.2361 13.694 21.3295 13.6923 21.3295 13.6923C21.5482 13.8426 21.6167 13.729 21.6083 14.1481C21.5265 14.1798 21.5633 14.1581 21.5149 14.1982C21.6234 14.2082 21.6467 14.2082 21.7018 14.2483C21.6146 14.3114 21.5493 14.4001 21.5149 14.5021C21.6551 14.5689 21.61 14.6123 21.7936 14.654C21.8345 14.6127 21.8819 14.5783 21.9339 14.5522C21.9769 14.7295 22.0744 14.8889 22.2126 15.008C22.1492 15.1616 22.1559 15.2133 21.9806 15.2617C21.8137 15.0614 21.8036 15.1582 21.5616 15.2117C21.5616 15.0213 21.6184 15.0881 21.4214 15.0597C21.2507 15.0698 21.0796 15.0698 20.9089 15.0597C20.964 14.6841 21.2644 14.5839 21.3746 14.2483H21.2344C21.0296 14.4043 20.7903 14.5085 20.5366 14.5522C20.3914 14.5722 20.1777 14.447 20.0241 14.5522C20.2495 14.5522 20.4114 14.5956 20.4899 14.7542H20.3496C20.1084 14.577 19.814 14.4874 19.515 14.5004C19.4098 14.6223 19.2412 14.6791 19.1427 14.8043H19.0959V14.8544H19.1894C19.3647 14.6874 19.8388 14.5204 19.9807 14.8043H20.0274C20.0742 14.856 19.9824 14.8544 19.9807 14.8544C19.944 14.8894 19.8772 14.9211 19.8405 14.9562C19.9306 15.008 19.9356 15.1649 19.9807 15.3102H20.0274C20.0358 15.1916 20.0358 15.1666 20.0742 15.1081C20.1744 15.2183 20.3663 15.1749 20.4465 15.3102C20.4078 15.3363 20.3757 15.3712 20.353 15.412H20.4465C20.5248 15.3265 20.6196 15.2578 20.7252 15.21C20.767 15.3335 20.7753 15.2901 20.8187 15.412C20.4031 15.4521 20.0508 15.7877 19.7003 15.9129C19.6489 15.8372 19.6168 15.75 19.6068 15.6591C19.6984 15.6346 19.7797 15.5814 19.8388 15.5072C19.4081 15.5372 18.8155 15.786 18.8606 16.3687C18.5267 16.3887 18.4649 16.5173 18.2546 16.5707C18.1607 16.7903 18.0353 16.995 17.8823 17.1784V17.2285H17.8356C17.8456 17.0616 17.9357 17.1066 17.7888 17.0265V17.2285H17.7421C17.6953 17.2803 17.7888 17.2786 17.7888 17.2786C17.8262 17.352 17.8734 17.4199 17.9291 17.4806C17.899 17.5691 17.9207 17.5291 17.8823 17.5825C17.8105 17.6576 17.7972 17.6226 17.7421 17.7344H17.7888V17.7845C17.455 17.7945 16.8373 18.2487 16.8106 18.6961C17.0118 18.9931 17.0951 19.3544 17.0443 19.7096H16.8573C16.766 19.5038 16.6401 19.3151 16.4851 19.1519C16.5256 19.0893 16.557 19.0213 16.5785 18.9499C16.435 18.8464 16.4417 18.7746 16.2063 18.7479C16.0393 18.8464 16.011 18.6761 15.8724 18.646C15.7055 18.6076 15.4551 18.6911 15.1729 18.6961V18.7462C15.2881 18.8113 15.2047 18.7245 15.2664 18.848H15.0744C14.9442 18.9165 14.6788 18.823 14.562 18.7462C14.3483 18.7679 13.7557 19.0901 13.7273 19.2471C13.7173 19.3523 13.8458 19.5393 13.8208 19.6528L13.6805 19.7029V20.3624C13.734 20.6095 13.9393 20.7347 14.0144 21.0202C14.2665 21.0486 14.2298 21.1371 14.4802 21.1721C14.612 21.0552 14.7289 21.0836 14.8992 21.122C14.9326 21.0018 15.0811 20.6212 15.1779 20.5644C15.3499 20.4749 15.5448 20.4395 15.7372 20.4625C15.7656 20.5443 15.7813 20.6298 15.7839 20.7163C15.5803 20.8182 15.6554 20.9634 15.7372 21.122C15.5252 21.1821 15.4651 21.3691 15.2714 21.476V21.5261H16.1061C16.1896 21.658 16.248 21.6413 16.2931 21.8299C16.3181 21.9385 16.1679 22.3525 16.2463 22.5395C16.2697 22.6403 16.3217 22.7322 16.396 22.8041C16.4704 22.8761 16.5639 22.9251 16.6654 22.9452C16.7305 22.9452 17.0193 22.7299 17.2713 22.8434L17.4116 23.0454C17.4967 23.0721 17.4833 23.0037 17.505 22.9953C17.7621 22.8951 17.682 22.6063 17.8773 22.4944C18.0726 22.3826 18.293 22.4844 18.4833 22.1906L18.6235 22.2407V22.3926C18.5167 22.4611 18.5384 22.4544 18.53 22.4944V22.5445C18.6034 22.5021 18.6812 22.4679 18.7621 22.4427C18.7621 22.3108 18.7621 22.3625 18.8088 22.1889H18.8556C18.8823 22.406 19.1277 22.5763 19.2746 22.6447C19.4415 22.5345 19.6368 22.6764 19.8805 22.6948V22.4928C20.0158 22.5178 19.9674 22.5679 20.0208 22.5946C20.1447 22.5861 20.2691 22.5861 20.393 22.5946C20.4031 22.6647 20.3546 22.5746 20.3463 22.6447C20.2561 22.6831 20.4398 22.6948 20.4398 22.6948C20.4782 22.5278 20.4164 22.618 20.5333 22.5429C20.575 22.598 20.5333 22.5429 20.58 22.5929C20.5483 22.8 20.5032 22.8951 20.58 22.9469C20.7469 23.1139 21.0541 23.4745 21.2778 23.5546C21.4195 23.5719 21.5632 23.5547 21.6968 23.5045C22.1359 23.4361 22.4881 23.8385 22.4881 24.316C22.5459 24.3584 22.5904 24.4162 22.6166 24.4829C20.7019 24.5464 18.717 24.6833 16.7421 24.8653C16.7588 24.8172 16.7801 24.7708 16.8056 24.7267C16.8607 24.6332 17.0243 24.6532 17.0844 24.5748L17.1311 24.2709C17.1962 24.1741 17.298 24.2442 17.3631 24.119C17.4123 23.9028 17.4281 23.6804 17.4099 23.4595C17.3972 23.3489 17.3498 23.2453 17.2746 23.1634C17.1993 23.0815 17.0999 23.0256 16.9909 23.0037C16.9499 23.045 16.9026 23.0793 16.8506 23.1055C16.8506 23.3042 16.9558 23.2374 16.7572 23.3075C16.6371 23.2138 16.4904 23.1606 16.3382 23.1556C16.2797 23.1038 16.2981 22.9586 16.2447 22.9018C16.1428 22.795 15.9492 22.8217 15.8724 22.8C15.7555 22.3993 15.6003 22.0904 15.2197 22.0904C15.0411 21.9568 14.7473 21.9769 14.567 21.8366C14.4568 21.7515 14.3867 21.5328 14.2331 21.4827L13.6739 21.5845C13.1189 21.438 12.6075 21.1596 12.1831 20.7731L12.2766 20.4692C12.1464 20.3507 12.1097 20.157 11.9978 20.0134C11.8559 19.8231 11.5838 19.7429 11.4386 19.5576C11.4773 19.5315 11.5093 19.4966 11.5321 19.4558C11.3651 19.404 11.29 19.3623 11.2533 19.1519H11.1164C11.0546 19.0451 10.7825 18.5442 10.6974 18.4924C10.6274 18.4512 10.5461 18.4336 10.4653 18.4423V18.5442C10.566 18.6717 10.6778 18.7902 10.7992 18.8981C10.7391 18.9265 10.7642 18.8981 10.7525 18.9482C10.9077 19.1936 11.2065 19.4608 11.265 19.9116H11.4052C11.4565 19.9873 11.4886 20.0744 11.4987 20.1654C11.4486 20.2121 11.4987 20.1654 11.4519 20.2154H11.3584C11.3214 20.1219 11.2649 20.0374 11.1927 19.9674C11.1204 19.8975 11.0341 19.8437 10.9394 19.8097C10.9578 19.6678 10.9962 19.6661 10.9394 19.5559C10.7935 19.4176 10.6183 19.3138 10.4269 19.2521V19.202H10.4653C10.5063 19.1607 10.5536 19.1263 10.6056 19.1001V19.0501H10.5588C10.4854 18.853 10.3802 18.9282 10.28 18.7963C10.1265 18.5959 10.1331 18.2052 9.94617 18.0366C9.79592 17.893 9.55387 17.9431 9.38693 17.8346C9.38693 17.8346 9.0781 17.4072 9.05306 17.3788C9.13486 17.3471 9.09813 17.3688 9.14654 17.3287C9.05355 17.282 8.97099 17.217 8.90385 17.1375C8.83671 17.058 8.78638 16.9657 8.75591 16.8662C7.31948 19.7211 6.66514 22.9057 6.85952 26.0958L6.41713 26.1642C6.09239 21.4225 7.59362 16.7362 10.6131 13.0661C13.6325 9.39599 17.9413 7.02017 22.6562 6.42574C27.371 5.83132 32.1346 7.06332 35.9702 9.86916C39.8059 12.675 42.423 16.8421 43.285 21.5161H43.2867ZM42.7007 41.6314C42.0853 41.7928 41.4732 41.9453 40.8644 42.0888C42.033 38.3322 43.5972 32.7575 45.0378 27.5199C45.8169 27.7036 46.5959 27.8967 47.3749 28.0993C47.2598 32.9728 47.208 36.9064 47.2648 40.3024C46.6248 40.5083 45.9899 40.7048 45.36 40.8917C45.3483 40.1137 45.3417 39.2973 45.345 38.4324C44.7418 38.5849 44.1414 38.7302 43.5438 38.8682C43.2416 39.8466 42.9628 40.7732 42.6991 41.6314H42.7007ZM45.4552 36.6076C45.4886 35.736 45.5275 34.8233 45.572 33.8694C45.6004 33.0346 45.6939 31.572 45.7523 30.5903H45.7072C45.4552 31.572 45.0762 33.0797 44.8442 33.9295C44.5687 34.9313 44.295 35.9197 44.0245 36.8814C44.4997 36.7901 44.9766 36.6988 45.4552 36.6076Z" fill="white"/>
<path d="M2.21707 23.2575L4.08509 23.0654L2.28551 22.5195L2.33393 22.0186L5.06667 22.9386C5.60087 23.1172 5.78283 23.2725 5.76113 23.5012C5.75284 23.597 5.72256 23.6895 5.67265 23.7717L5.17184 23.7233C5.1972 23.6868 5.21429 23.6452 5.22192 23.6014C5.23027 23.5112 5.15515 23.4344 4.96317 23.3727L2.16699 23.7683L2.21707 23.2575Z" fill="white"/>
<path d="M3.96651 21.4226L2.58928 20.6011L2.68444 20.1002L4.05165 20.9784L6.09995 20.7197L6.00647 21.2205L4.57249 21.3591L4.87464 21.5995L5.89963 21.7915L5.81616 22.2407L2.40232 21.5945L2.48578 21.1454L3.96651 21.4226Z" fill="white"/>
<path d="M6.26576 20.1119L6.14223 20.5527L2.8035 19.6127L3.03721 18.7779C3.14238 18.4023 3.6482 18.2904 4.18573 18.444C4.72327 18.5976 5.12225 18.9683 5.02041 19.3439L4.9119 19.7296L6.26576 20.1119ZM4.40943 19.5893L4.47119 19.3673C4.53296 19.1452 4.38439 18.9849 4.06387 18.8965C3.74335 18.808 3.54303 18.8681 3.47959 19.0901L3.41949 19.3105L4.40943 19.5893Z" fill="white"/>
<path d="M3.4874 17.3688L3.70275 16.7928L7.14164 17.5023L6.9747 17.9648L6.08827 17.7561L5.90798 18.242L6.70426 18.6911L6.53733 19.1519L3.4874 17.3688ZM5.58078 17.6309L4.00324 17.2402L5.44056 18.0099L5.58078 17.6309Z" fill="white"/>
<path d="M4.24373 15.5155L5.41228 16.0765C5.78425 16.2482 6.1455 16.4422 6.49403 16.6575L4.50916 14.9696L4.72284 14.5238L7.85289 16.0264L7.66759 16.4121L6.48402 15.8444C6.11629 15.6793 5.76091 15.4879 5.42063 15.2718L7.40383 16.9564L7.19016 17.4022L4.0601 15.8995L4.24373 15.5155Z" fill="white"/>
<path d="M6.37731 14.3017L6.68614 13.7825L5.53929 13.0979L5.773 12.7056L8.75448 14.4837L8.52077 14.8761L7.14188 14.053L6.83305 14.5722L8.21194 15.3953L7.97823 15.7877L4.99508 14.0095L5.22879 13.6172L6.37731 14.3017Z" fill="white"/>
<path d="M7.58949 12.0828L7.52772 12.0377C7.17382 11.7806 7.00688 11.7556 6.89336 11.9125C6.77985 12.0695 6.85163 12.2247 7.20553 12.4819L8.31566 13.2866C8.68125 13.5521 8.84986 13.5754 8.96337 13.4185C9.07689 13.2616 9.0001 13.1063 8.6295 12.8442L8.47759 12.734L8.74636 12.3633L8.86655 12.4501C9.37737 12.8191 9.72126 13.2632 9.38572 13.7257C9.05018 14.1882 8.50931 14.0095 8.01017 13.6489L6.99353 12.9043C6.3358 12.4268 6.17721 11.9993 6.46935 11.5953C6.76148 11.1913 7.20053 11.2347 7.71803 11.6103L7.85826 11.7122L7.58949 12.0828Z" fill="white"/>
<path d="M8.72292 11.2614L7.95001 9.85558L8.29557 9.45988L9.03176 10.9074L10.9298 11.7205L10.5959 12.1062L9.28049 11.5051L9.42072 11.8658L10.2087 12.5503L9.90817 12.8959L7.29395 10.6203L7.59444 10.2746L8.72292 11.2614Z" fill="white"/>
<path d="M8.96331 8.79204L9.40569 8.36463L12.1985 10.4884L11.843 10.8323L11.1335 10.2596L10.7612 10.6186L11.2854 11.3699L10.9315 11.7038L8.96331 8.79204ZM10.7378 9.93405L9.48415 8.8989L10.4474 10.2145L10.7378 9.93405Z" fill="white"/>
<path d="M12.033 8.80874L12.5973 10.1695L12.21 10.4817L11.634 9.02746C11.3536 9.05584 11.008 8.85215 10.7343 8.51155C10.3854 8.07746 10.2785 7.57658 10.5823 7.33115L11.2701 6.77851L13.4403 9.48326L13.083 9.77043L12.1966 8.6685L12.033 8.80874ZM11.2401 7.47306L11.0598 7.61832C10.8795 7.7619 10.9029 7.97895 11.1082 8.23273C11.3135 8.48651 11.5255 8.56665 11.7042 8.41973L11.8844 8.27614L11.2401 7.47306Z" fill="white"/>
<path d="M13.2368 5.39608C13.6341 5.15733 14.0564 5.25751 14.5122 6.01717L15.1599 7.0974C15.6139 7.85707 15.4937 8.26612 15.0964 8.4982C14.6991 8.73027 14.2734 8.65013 13.8227 7.89881L13.175 6.81858C12.7259 6.06726 12.8445 5.6315 13.2368 5.39608ZM13.5356 6.51137L14.2651 7.72851C14.4504 8.03739 14.6374 8.15593 14.8243 8.04407C15.0113 7.9322 14.9913 7.72183 14.801 7.40795L14.0765 6.19916C13.8862 5.88194 13.6775 5.74837 13.5089 5.85021C13.3403 5.95206 13.3453 6.19415 13.5356 6.51304V6.51137Z" fill="white"/>
<path d="M15.5788 4.23572L15.7942 4.6815L15.0547 5.03879L15.4202 5.79679L15.7658 5.62983C16.0997 5.46287 16.5504 5.84354 16.7674 6.28598C17.0579 6.88871 17.0596 7.3779 16.7324 7.53651L15.9394 7.91885L14.427 4.78501L15.5788 4.23572ZM16.1314 7.27272L16.3684 7.15751C16.522 7.08405 16.5437 6.90707 16.3684 6.55646C16.2199 6.24925 16.0346 6.08396 15.8793 6.15742L15.6406 6.27263L16.1314 7.27272Z" fill="white"/>
<path d="M17.8956 7.02895L17.4683 7.19591L16.2429 3.9402L17.0526 3.63466C17.4182 3.49775 17.8071 3.83835 18.0041 4.36094C18.2011 4.88352 18.1377 5.42614 17.7721 5.56305L17.3965 5.70496L17.8956 7.02895ZM17.2162 5.22412L17.4315 5.14231C17.6469 5.0605 17.6869 4.84512 17.5701 4.53457C17.4532 4.22403 17.2846 4.09714 17.0693 4.17895L16.8539 4.26076L17.2162 5.22412Z" fill="white"/>
<path d="M18.452 3.16717L19.043 3.00021L20.512 6.19081L20.0362 6.32772L19.6773 5.49292L19.1765 5.63484L19.2884 6.5431L18.8159 6.67834L18.452 3.16717ZM19.4837 5.00373L18.8627 3.50109L19.0964 5.11559L19.4837 5.00373Z" fill="white"/>
<path d="M20.1259 3.74652C20.0107 3.15215 20.1809 2.65294 20.6267 2.56612C20.9438 2.50434 21.3762 2.64626 21.5114 3.33413C21.5799 3.68809 21.4931 4.02368 21.2927 4.14556C21.5448 4.18396 21.7602 4.43106 21.8603 4.94696C21.9939 5.6315 21.8019 6.02219 21.3328 6.11568C20.9455 6.19082 20.5282 6.00716 20.3863 5.28089L20.822 5.19573C20.8687 5.43115 20.9789 5.64987 21.2043 5.60646C21.4296 5.56305 21.458 5.33598 21.3896 4.98203C21.3111 4.58132 21.1425 4.46111 20.9555 4.49784L20.8604 4.51621L20.7652 4.03036L20.8604 4.01199C21.0273 3.98027 21.1291 3.82166 21.0707 3.52113C21.0273 3.29406 20.9188 3.05531 20.7368 3.09204C20.5549 3.12877 20.5098 3.36085 20.5699 3.66805L20.1259 3.74652Z" fill="white"/>
<path d="M22.68 2.25891C23.1407 2.21049 23.4813 2.47929 23.5731 3.36084L23.7033 4.61805C23.7951 5.49793 23.5146 5.81181 23.0539 5.86023C22.5932 5.90865 22.2426 5.64986 22.1524 4.78L22.0222 3.52613C21.9304 2.65126 22.2242 2.30733 22.68 2.25891ZM22.4846 3.39757L22.6316 4.80838C22.6683 5.16735 22.7885 5.35267 23.0055 5.33097C23.2225 5.30926 23.291 5.10724 23.2526 4.74494L23.1073 3.34415C23.0689 2.97517 22.9404 2.76647 22.7401 2.78817C22.5397 2.80987 22.4396 3.02859 22.4846 3.39757Z" fill="white"/>
<path d="M24.0142 2.21216L24.8589 2.20047C25.2829 2.20047 25.4582 2.59617 25.4649 3.03527C25.4649 3.36919 25.3514 3.73817 25.1511 3.79995C25.3898 3.93685 25.5133 4.17895 25.52 4.63475C25.52 5.2358 25.3531 5.66656 24.9841 5.67157L24.0626 5.68492L24.0142 2.21216ZM24.4883 3.61629H24.7287C24.929 3.61629 25.0092 3.43931 25.0058 3.14046C25.0025 2.8416 24.929 2.69968 24.722 2.70135H24.475L24.4883 3.61629ZM24.51 5.18404H24.8038C24.9708 5.18404 25.0559 5.03211 25.0509 4.64142C25.0509 4.3075 24.9608 4.10882 24.7905 4.11049H24.4967L24.51 5.18404Z" fill="white"/>
<path d="M26.465 2.24388L27.0776 2.29063L27.3514 5.79679L26.8506 5.76006L26.8038 4.85013L26.288 4.81173L26.0777 5.70162L25.5885 5.66489L26.465 2.24388ZM26.7988 4.32754L26.7354 2.70302L26.4015 4.29749L26.7988 4.32754Z" fill="white"/>
<path d="M28.2596 5.94037L27.8072 5.86858L28.2646 2.96014L27.7037 2.87165L27.7855 2.34907L29.358 2.59617L29.2779 3.11541L28.717 3.02692L28.2596 5.94037Z" fill="white"/>
<path d="M31.0436 2.99854L30.9184 3.51278L30.1104 3.31744L29.9201 4.10215L30.6646 4.28413L30.5394 4.79837L29.7966 4.61805L29.5428 5.66489L30.3508 5.86024L30.2256 6.37447L28.9736 6.0706L29.7916 2.69635L31.0436 2.99854Z" fill="white"/>
<path d="M33.0805 3.65302L31.9704 6.9438L31.5364 6.79688L32.4779 4.00865L32.0155 3.85337L31.5898 5.11893C31.2192 6.21753 30.9221 6.66164 30.5648 6.53976C30.4742 6.51299 30.3897 6.46875 30.3161 6.40953L30.4713 5.94872C30.5107 5.97993 30.5553 6.00369 30.6032 6.01884C30.7368 6.06392 30.8236 5.98211 31.2259 4.78835L31.7584 3.21225L33.0805 3.65302Z" fill="white"/>
<path d="M33.5028 5.28589L33.8533 5.44116C34.1872 5.5931 34.1989 6.17746 34.0002 6.62658C33.7298 7.23765 33.3575 7.55655 33.0253 7.40962L32.219 7.05233L33.6263 3.88009L34.0436 4.06541L33.5028 5.28589ZM32.835 6.78853L33.0754 6.89538C33.2306 6.96384 33.3809 6.867 33.5378 6.51138C33.6764 6.19916 33.6814 5.94872 33.5261 5.88027L33.2857 5.77341L32.835 6.78853Z" fill="white"/>
<path d="M35.2108 6.10065L35.7384 6.3945L36.3877 5.22578L36.7884 5.44784L35.104 8.4815L34.7034 8.25944L35.4829 6.85531L34.9554 6.56146L34.1708 7.96726L33.7702 7.74521L35.4546 4.70988L35.8552 4.93193L35.2108 6.10065Z" fill="white"/>
<path d="M37.6528 6.00382L38.1536 6.34943L36.6512 9.52167L36.2422 9.24451L36.6562 8.43309L36.2289 8.14258L35.6029 8.81042L35.1972 8.53493L37.6528 6.00382ZM36.9 7.97562L37.6562 6.53475L36.5661 7.74855L36.9 7.97562Z" fill="white"/>
<path d="M38.2623 9.01243L37.047 9.84723L36.6614 9.53168L37.9668 8.67351C37.88 8.4047 38.0103 8.0257 38.2874 7.68677C38.6413 7.25435 39.1087 7.04732 39.4108 7.29442L40.0936 7.85206L37.8951 10.5384L37.5412 10.2496L38.4359 9.15602L38.2623 9.01243ZM39.4142 7.95725L39.2356 7.81199C39.0569 7.66674 38.8516 7.73352 38.6446 7.97895C38.4376 8.22438 38.4059 8.45479 38.5845 8.60004L38.7631 8.7453L39.4142 7.95725Z" fill="white"/>
<path d="M40.3904 10.2246L41.8644 9.59513L42.22 9.97246L40.7076 10.5602L39.7059 12.3683L39.3554 11.996L40.0866 10.7538L39.7143 10.8573L38.9564 11.5736L38.6426 11.2397L41.1716 8.85883L41.4855 9.19275L40.3904 10.2246Z" fill="white"/>
<path d="M43.035 10.869C43.3222 11.233 43.2771 11.6654 42.5826 12.2047L41.5944 12.9861C40.8999 13.5337 40.4859 13.4669 40.1971 13.103C39.9083 12.739 39.9417 12.3049 40.6278 11.7673L41.6161 10.9859C42.3039 10.4483 42.7512 10.5101 43.035 10.869ZM41.9666 11.3081L40.8482 12.188C40.5644 12.4117 40.4726 12.6121 40.6061 12.7824C40.7397 12.9527 40.94 12.9043 41.2338 12.6772L42.3506 11.7973C42.6411 11.5686 42.7462 11.3449 42.6244 11.1896C42.5025 11.0343 42.2571 11.0794 41.9666 11.3098V11.3081Z" fill="white"/>
<path d="M44.2132 12.6171L42.4754 14.0897L44.5538 13.1597L44.9427 13.7791L42.0047 15.6291L41.7776 15.2668L44.4386 13.5972L41.5339 14.8844L41.367 14.6073L43.7792 12.547L41.1232 14.2166L40.8962 13.8543L43.8343 12.0044L44.2132 12.6171Z" fill="white"/>
<path d="M45.898 15.6925L42.7796 17.2185L42.5793 16.8078L45.2219 15.5155L44.9582 14.9696L42.3156 16.2618L42.1152 15.8511L45.2336 14.3251L45.898 15.6925Z" fill="white"/>
<path d="M46.292 16.6508L46.5107 17.2252L43.4575 18.9616L43.2822 18.4991L44.0868 18.0717L43.9032 17.5875L43.0067 17.7762L42.8398 17.317L46.292 16.6508ZM44.5459 17.8346L45.9899 17.0883L44.4023 17.4573L44.5459 17.8346Z" fill="white"/>
<path d="M45.6676 18.9315L45.8346 19.5125L47.1217 19.1502L47.2452 19.591L43.9065 20.5343L43.7829 20.0936L45.3288 19.6578L45.1618 19.0768L43.616 19.5125L43.4925 19.0718L46.8312 18.1301L46.9547 18.5709L45.6676 18.9315Z" fill="white"/>
<path d="M47.4503 20.5644L46.1732 20.8031C45.7718 20.8832 45.366 20.9389 44.9579 20.9701L47.5621 21.1621L47.6523 21.648L44.2401 22.2857L44.1616 21.865L45.452 21.6246C45.8465 21.5403 46.2465 21.4845 46.649 21.4576L44.0498 21.264L43.9596 20.7781L47.3718 20.1453L47.4503 20.5644Z" fill="white"/>
<path d="M45.7593 23.2224L44.3136 22.9419L44.2668 22.441L45.7943 22.7749C45.9245 22.5245 46.2851 22.3492 46.7208 22.3091C47.2767 22.2574 47.7525 22.4444 47.7892 22.8334L47.871 23.7116L44.4154 24.0355L44.3737 23.5797L45.7809 23.4478L45.7593 23.2224ZM47.3168 23.3009L47.2951 23.0721C47.2734 22.8434 47.0814 22.7382 46.7559 22.7733C46.4303 22.8083 46.2551 22.9402 46.2717 23.1673L46.2934 23.396L47.3168 23.3009Z" fill="white"/>
</svg>
