<svg width="37" height="20" viewBox="0 0 37 20" fill="none" xmlns="http://www.w3.org/2000/svg">
<path fill-rule="evenodd" clip-rule="evenodd" d="M10.7909 19.8612C11.6127 19.4912 11.9986 18.4917 11.6246 17.7014C11.5274 17.4959 10.5011 16.4249 8.62933 14.5756C7.06333 13.0284 5.78204 11.7359 5.78204 11.7034C5.78204 11.671 12.5374 11.6444 20.794 11.6444L35.8058 11.6444L36.1535 11.4625C36.6881 11.1828 36.9635 10.7369 36.9966 10.0975C37.0292 9.46568 36.8309 9.01473 36.3557 8.63998L36.0526 8.40099L20.9173 8.38082C12.5929 8.3698 5.78204 8.3344 5.78204 8.30227C5.78204 8.27015 7.07776 6.96036 8.66151 5.39165C11.7695 2.31298 11.8368 2.22913 11.7571 1.52894C11.7041 1.06228 11.3655 0.51168 10.9738 0.254787C10.5331 -0.0342287 9.80485 -0.0851862 9.36406 0.142165C8.97201 0.344351 0.328499 8.9236 0.137876 9.29976C-0.0561391 9.68248 -0.0437585 10.3506 0.164689 10.7456C0.405866 11.2028 9.04788 19.7318 9.42715 19.887C9.81826 20.047 10.4026 20.0359 10.7909 19.8612Z" fill="#ED1C24"/>
</svg>
